<svg width="25" height="25" viewBox="0 0 25 25" fill="none" xmlns="http://www.w3.org/2000/svg">
<path d="M5.85938 21.875H1.17188C0.861074 21.875 0.563003 21.7515 0.343234 21.5318C0.123465 21.312 0 21.0139 0 20.7031C0 20.3923 0.123465 20.0943 0.343234 19.8745C0.563003 19.6547 0.861074 19.5312 1.17188 19.5312H5.85938V20.3125H1.17188C1.06827 20.3125 0.968918 20.3537 0.895661 20.4269C0.822405 20.5002 0.78125 20.5995 0.78125 20.7031C0.78125 20.8067 0.822405 20.9061 0.895661 20.9793C0.968918 21.0526 1.06827 21.0938 1.17188 21.0938H5.85938V21.875Z" fill="#191E3B"/>
<path d="M2.73438 8.20312H3.51562V19.9219H2.73438V8.20312Z" fill="#191E3B"/>
<path d="M21.4844 8.20312H22.2656V15.625H21.4844V8.20312Z" fill="#191E3B"/>
<path d="M23.8281 9.76566C23.7621 9.76558 23.6972 9.74878 23.6395 9.71683L12.5 3.57113L1.36055 9.71683C1.30109 9.74963 1.23411 9.76636 1.16622 9.76537C1.09832 9.76439 1.03186 9.74573 0.973374 9.71122C0.914893 9.67671 0.866416 9.62756 0.832725 9.56861C0.799034 9.50965 0.781292 9.44293 0.78125 9.37503V7.42191C0.781293 7.35209 0.80005 7.28355 0.835568 7.22344C0.871086 7.16333 0.922066 7.11383 0.983203 7.08011L12.3113 0.83011C12.369 0.798027 12.434 0.781189 12.5 0.781189C12.566 0.781189 12.631 0.798027 12.6887 0.83011L24.0168 7.08011C24.0779 7.11383 24.1289 7.16333 24.1644 7.22344C24.1999 7.28355 24.2187 7.35209 24.2188 7.42191V9.37503C24.2188 9.47863 24.1776 9.57799 24.1043 9.65125C24.0311 9.7245 23.9317 9.76566 23.8281 9.76566ZM12.5 2.73441C12.566 2.73448 12.6309 2.75128 12.6887 2.78324L23.4375 8.71331V7.65238L12.5 1.618L1.5625 7.65238V8.71331L12.3113 2.78324C12.3691 2.75128 12.434 2.73448 12.5 2.73441Z" fill="#191E3B"/>
<path d="M5.07812 19.9219H4.29688V9.76562C4.29688 9.66202 4.33803 9.56267 4.41129 9.48941C4.48454 9.41615 4.5839 9.375 4.6875 9.375H10.1562C10.2599 9.375 10.3592 9.41615 10.4325 9.48941C10.5057 9.56267 10.5469 9.66202 10.5469 9.76562V15.625H9.76562V10.1562H5.07812V19.9219Z" fill="#191E3B"/>
<path d="M19.5312 14.8438H12.5C12.1892 14.8438 11.8911 14.7203 11.6714 14.5005C11.4516 14.2807 11.3281 13.9827 11.3281 13.6719V10.5469C11.3281 10.2361 11.4516 9.938 11.6714 9.71823C11.8911 9.49846 12.1892 9.375 12.5 9.375H19.5312C19.8421 9.375 20.1401 9.49846 20.3599 9.71823C20.5797 9.938 20.7031 10.2361 20.7031 10.5469V13.6719C20.7031 13.9827 20.5797 14.2807 20.3599 14.5005C20.1401 14.7203 19.8421 14.8438 19.5312 14.8438ZM12.5 10.1562C12.3964 10.1562 12.297 10.1974 12.2238 10.2707C12.1505 10.3439 12.1094 10.4433 12.1094 10.5469V13.6719C12.1094 13.7755 12.1505 13.8748 12.2238 13.9481C12.297 14.0213 12.3964 14.0625 12.5 14.0625H19.5312C19.6349 14.0625 19.7342 14.0213 19.8075 13.9481C19.8807 13.8748 19.9219 13.7755 19.9219 13.6719V10.5469C19.9219 10.4433 19.8807 10.3439 19.8075 10.2707C19.7342 10.1974 19.6349 10.1562 19.5312 10.1562H12.5Z" fill="#191E3B"/>
<path d="M4.6875 5.69922H3.90625V1.95312C3.90625 1.84952 3.94741 1.75017 4.02066 1.67691C4.09392 1.60366 4.19327 1.5625 4.29688 1.5625H7.42188C7.52548 1.5625 7.62483 1.60366 7.69809 1.67691C7.77135 1.75017 7.8125 1.84952 7.8125 1.95312V3.97266H7.03125V2.34375H4.6875V5.69922Z" fill="#191E3B"/>
<path d="M7.8125 2.34375H3.90625C3.80265 2.34375 3.70329 2.30259 3.63004 2.22934C3.55678 2.15608 3.51562 2.05673 3.51562 1.95312V0.390625C3.51562 0.287025 3.55678 0.187668 3.63004 0.114411C3.70329 0.041155 3.80265 0 3.90625 0L7.8125 0C7.9161 0 8.01546 0.041155 8.08871 0.114411C8.16197 0.187668 8.20312 0.287025 8.20312 0.390625V1.95312C8.20312 2.05673 8.16197 2.15608 8.08871 2.22934C8.01546 2.30259 7.9161 2.34375 7.8125 2.34375ZM4.29688 1.5625H7.42188V0.78125H4.29688V1.5625Z" fill="#191E3B"/>
<path d="M23.0469 25H9.37501C9.31221 25 9.25033 24.9848 9.19464 24.9557C9.13895 24.9267 9.09108 24.8847 9.05509 24.8332L6.32072 20.927C6.27483 20.8613 6.25023 20.7832 6.25023 20.7031C6.25023 20.6231 6.27483 20.5449 6.32072 20.4793L9.05509 16.573C9.09108 16.5216 9.13895 16.4795 9.19464 16.4505C9.25033 16.4215 9.31221 16.4063 9.37501 16.4062H23.0469C23.5647 16.4069 24.0611 16.6128 24.4273 16.979C24.7934 17.3451 24.9994 17.8416 25 18.3594V23.0469C24.9994 23.5647 24.7934 24.0611 24.4273 24.4273C24.0611 24.7934 23.5647 24.9994 23.0469 25ZM9.57853 24.2188H23.0469C23.3577 24.2188 23.6558 24.0953 23.8755 23.8755C24.0953 23.6557 24.2188 23.3577 24.2188 23.0469V18.3594C24.2188 18.0486 24.0953 17.7505 23.8755 17.5307C23.6558 17.311 23.3577 17.1875 23.0469 17.1875H9.57853L7.11759 20.7031L9.57853 24.2188Z" fill="#191E3B"/>
<path d="M12.5 21.0938H10.9375C10.8339 21.0938 10.7345 21.0526 10.6613 20.9793C10.588 20.9061 10.5469 20.8067 10.5469 20.7031V19.1406C10.5469 19.037 10.588 18.9377 10.6613 18.8644C10.7345 18.7912 10.8339 18.75 10.9375 18.75H12.5C12.8108 18.75 13.1089 18.8735 13.3286 19.0932C13.5484 19.313 13.6719 19.6111 13.6719 19.9219C13.6719 20.2327 13.5484 20.5307 13.3286 20.7505C13.1089 20.9703 12.8108 21.0938 12.5 21.0938ZM11.3281 20.3125H12.5C12.6036 20.3125 12.703 20.2713 12.7762 20.1981C12.8495 20.1248 12.8906 20.0255 12.8906 19.9219C12.8906 19.8183 12.8495 19.7189 12.7762 19.6457C12.703 19.5724 12.6036 19.5312 12.5 19.5312H11.3281V20.3125Z" fill="#191E3B"/>
<path d="M12.9184 22.8016L12.2355 21.0938H11.3281V22.6563H10.5469V20.7031C10.5469 20.5995 10.588 20.5002 10.6613 20.4269C10.7345 20.3537 10.8339 20.3125 10.9375 20.3125H12.5C12.5781 20.3124 12.6544 20.3358 12.7191 20.3795C12.7837 20.4232 12.8338 20.4853 12.8629 20.5578L13.6441 22.5109L12.9184 22.8016Z" fill="#191E3B"/>
<path d="M16.4062 21.0938H14.4531C14.3495 21.0938 14.2502 21.0526 14.1769 20.9793C14.1037 20.9061 14.0625 20.8067 14.0625 20.7031V19.5312C14.0625 19.324 14.1448 19.1253 14.2913 18.9788C14.4378 18.8323 14.6365 18.75 14.8438 18.75H16.7969V19.5312H14.8438V20.3125H16.4062V21.0938Z" fill="#191E3B"/>
<path d="M16.7969 22.6562H14.8438C14.6365 22.6562 14.4378 22.5739 14.2913 22.4274C14.1448 22.2809 14.0625 22.0822 14.0625 21.875V20.7031H14.8438V21.875H16.7969V22.6562Z" fill="#191E3B"/>
<path d="M19.9219 22.6563C19.8556 22.6563 19.7905 22.6394 19.7325 22.6073C19.6746 22.5752 19.6257 22.5288 19.5906 22.4727L18.3594 20.5027V22.6563H17.5781V19.1406C17.5781 19.0558 17.6057 18.9733 17.6568 18.9055C17.7078 18.8378 17.7795 18.7885 17.8611 18.7651C17.9426 18.7418 18.0295 18.7455 18.1087 18.7759C18.1879 18.8063 18.255 18.8617 18.3 18.9336L19.5312 20.9035V18.75H20.3125V22.2656C20.3125 22.3692 20.2713 22.4686 20.1981 22.5418C20.1248 22.6151 20.0255 22.6563 19.9219 22.6563Z" fill="#191E3B"/>
<path d="M21.0938 18.75H23.4375V19.5312H21.0938V18.75Z" fill="#191E3B"/>
<path d="M21.875 19.1406H22.6562V22.6562H21.875V19.1406Z" fill="#191E3B"/>
<path d="M14.8438 9.76562H15.625V14.4531H14.8438V9.76562Z" fill="#191E3B"/>
<path d="M16.4062 9.76562H17.1875V14.4531H16.4062V9.76562Z" fill="#191E3B"/>
<path d="M11.7188 11.7188H15.2344V12.5H11.7188V11.7188Z" fill="#191E3B"/>
<path d="M16.7969 11.7188H20.3125V12.5H16.7969V11.7188Z" fill="#191E3B"/>
</svg>
