<svg width="36" height="27" viewBox="0 0 36 27" fill="none" xmlns="http://www.w3.org/2000/svg">
<path d="M28.9008 7.25626C28.9008 7.42236 28.8455 7.55987 28.7495 7.65582C28.6536 7.75177 28.5161 7.80709 28.35 7.80709C28.0197 7.80709 27.7991 7.53184 27.7991 7.25626V6.07501C27.7991 5.90891 27.8545 5.77141 27.9504 5.67545C28.0464 5.5795 28.1839 5.52419 28.35 5.52419C28.5161 5.52419 28.6536 5.5795 28.7495 5.67545C28.8455 5.77141 28.9008 5.90891 28.9008 6.07501V7.25626Z" fill="#191E3B" stroke="white" stroke-width="0.0233468"/>
<path d="M31.4883 7.25626C31.4883 7.42236 31.433 7.55987 31.3371 7.65582C31.2411 7.75177 31.1036 7.80709 30.9375 7.80709C30.6072 7.80709 30.3867 7.53184 30.3867 7.25626V6.07501C30.3867 5.90891 30.442 5.77141 30.5379 5.67545C30.6339 5.5795 30.7714 5.52419 30.9375 5.52419C31.1036 5.52419 31.2411 5.5795 31.3371 5.67545C31.433 5.77141 31.4883 5.90891 31.4883 6.07501V7.25626Z" fill="#191E3B" stroke="white" stroke-width="0.0233468"/>
<path d="M29.5196 23.1188C29.5196 23.2849 29.4643 23.4224 29.3683 23.5183C29.2724 23.6143 29.1348 23.6696 28.9688 23.6696C28.8319 23.6696 28.6941 23.6011 28.5903 23.4972C28.4865 23.3934 28.4179 23.2556 28.4179 23.1188V12.15C28.4179 11.9839 28.4732 11.8464 28.5692 11.7505C28.6651 11.6545 28.8027 11.5992 28.9688 11.5992C29.1348 11.5992 29.2724 11.6545 29.3683 11.7505C29.4643 11.8464 29.5196 11.9839 29.5196 12.15V23.1188Z" fill="#191E3B" stroke="white" stroke-width="0.0233468"/>
<path d="M20.978 19.7888L20.978 19.7888L20.9776 19.7889L12.4841 22.6013C12.4841 22.6014 12.484 22.6014 12.484 22.6014C11.9327 22.7666 11.5484 22.1056 11.9332 21.7208L15.5895 18.0645L15.5977 18.0563L15.5895 18.048L14.352 16.8105C14.0766 16.5352 14.1873 16.0399 14.5719 15.93L14.5719 15.93L14.5727 15.9297L23.5165 12.6672L23.5165 12.6673L23.5172 12.6669C24.0112 12.4474 24.5079 13.1068 24.0667 13.548L20.0167 17.598L20.0087 17.6061L20.0165 17.6143L21.1975 18.8515C21.4744 19.1842 21.3616 19.6792 20.978 19.7888ZM15.746 16.6391L15.7288 16.6453L15.7417 16.6583L16.7542 17.6708C16.9746 17.8912 16.9747 18.2212 16.7543 18.4417C16.7543 18.4417 16.7543 18.4417 16.7542 18.4418L14.3357 20.7478L14.3474 20.7673L19.7474 18.9673L19.7653 18.9614L19.752 18.948L18.7957 17.9918C18.5753 17.7713 18.5753 17.4412 18.7957 17.2208L21.4395 14.577L21.4272 14.5578L15.746 16.6391Z" fill="#191E3B" stroke="white" stroke-width="0.0233468"/>
<path d="M29.5196 3.20625V3.21792H29.5312H35.4375C35.6036 3.21792 35.7411 3.27324 35.8371 3.36919C35.933 3.46515 35.9883 3.60265 35.9883 3.76875V9.5625C35.9883 9.7286 35.933 9.86611 35.8371 9.96206C35.7411 10.058 35.6036 10.1133 35.4375 10.1133H33.4125H33.4008V10.125V25.7063C33.4008 25.8724 33.3455 26.0099 33.2496 26.1058C33.1536 26.2018 33.0161 26.2571 32.85 26.2571H3.15C2.9839 26.2571 2.8464 26.2018 2.75044 26.1058C2.65449 26.0099 2.59917 25.8724 2.59917 25.7063V10.125V10.1133H2.5875H0.5625C0.396403 10.1133 0.258895 10.058 0.162942 9.96206C0.0669882 9.86611 0.0116734 9.7286 0.0116734 9.5625V3.76875C0.0116734 3.60265 0.0669882 3.46515 0.162942 3.36919C0.258895 3.27324 0.396403 3.21792 0.5625 3.21792H6.46875H6.48042V3.20625V0.5625C6.48042 0.396403 6.53574 0.258895 6.63169 0.162942C6.72765 0.0669882 6.86515 0.0116734 7.03125 0.0116734H9.61875C9.78485 0.0116734 9.92235 0.0669882 10.0183 0.162942C10.1143 0.258896 10.1696 0.396403 10.1696 0.5625V3.20625V3.21792H10.1813H25.8188H25.8304V3.20625V0.5625C25.8304 0.396403 25.8857 0.258896 25.9817 0.162942C26.0776 0.0669882 26.2152 0.0116734 26.3813 0.0116734H28.9688C29.1348 0.0116734 29.2724 0.0669882 29.3683 0.162942C29.4643 0.258896 29.5196 0.396403 29.5196 0.5625V3.20625ZM26.9438 1.05708H26.9321V1.06875V3.15V3.16167H26.9438H28.4062H28.4179V3.15V1.06875V1.05708H28.4062H26.9438ZM7.59375 1.05708H7.58208V1.06875V3.15V3.16167H7.59375H9.05625H9.06792V3.15V1.06875V1.05708H9.05625H7.59375ZM32.2875 25.1554H32.2992V25.1438V10.125V10.1133H32.2875H3.7125H3.70083V10.125V25.1438V25.1554H3.7125H32.2875ZM34.875 9.01167H34.8867V9V4.33125V4.31958H34.875H1.125H1.11333V4.33125V9V9.01167H1.125H1.14734H1.1702H1.19357H1.21746H1.24186H1.26676H1.29217H1.31809H1.34451H1.37143H1.39885H1.42676H1.45517H1.48407H1.51346H1.54334H1.57371H1.60456H1.63589H1.6677H1.69999H1.73276H1.766H1.79972H1.8339H1.86855H1.90367H1.93925H1.97529H2.01179H2.04875H2.08617H2.12404H2.16236H2.20113H2.24035H2.28001H2.32012H2.36066H2.40165H2.44308H2.48494H2.52723H2.56996H2.61311H2.65669H2.7007H2.74513H2.78998H2.83525H2.88094H2.92704H2.97355H3.02048H3.06782H3.11556H3.1637H3.21225H3.2612H3.31055H3.3603H3.41043H3.46097H3.51189H3.5632H3.6149H3.66698H3.71944H3.77229H3.82551H3.87911H3.93309H3.98743H4.04215H4.09723H4.15268H4.2085H4.26467H4.32121H4.3781H4.43535H4.49296H4.55091H4.60922H4.66787H4.72687H4.78621H4.8459H4.90592H4.96628H5.02698H5.08801H5.14937H5.21106H5.27308H5.33543H5.3981H5.46108H5.52439H5.58802H5.65196H5.71621H5.78078H5.84565H5.91083H5.97632H6.0421H6.10819H6.17458H6.24127H6.30825H6.37552H6.44308H6.51094H6.57908H6.6475H6.7162H6.78519H6.85446H6.924H6.99381H7.0639H7.13426H7.20489H7.27578H7.34694H7.41836H7.49004H7.56198H7.63417H7.70662H7.77932H7.85227H7.92547H7.99891H8.0726H8.14653H8.2207H8.29511H8.36975H8.44463H8.51974H8.59507H8.67064H8.74643H8.82245H8.89868H8.97514H9.05181H9.1287H9.2058H9.28311H9.36064H9.43837H9.5163H9.59444H9.67278H9.75132H9.83005H9.90898H9.9881H10.0674H10.1469H10.2266H10.3065H10.3865H10.4668H10.5472H10.6278H10.7086H10.7895H10.8706H10.9519H11.0333H11.1149H11.1967H11.2787H11.3607H11.443H11.5254H11.6079H11.6907H11.7735H11.8565H11.9396H12.0229H12.1064H12.1899H12.2736H12.3575H12.4414H12.5255H12.6097H12.6941H12.7786H12.8631H12.9479H13.0327H13.1176H13.2027H13.2879H13.3731H13.4585H13.544H13.6296H13.7153H13.8011H13.887H13.973H14.0591H14.1453H14.2315H14.3179H14.4043H14.4908H14.5774H14.6641H14.7509H14.8377H14.9246H15.0116H15.0986H15.1857H15.2729H15.3601H15.4474H15.5348H15.6222H15.7097H15.7972H15.8847H15.9724H16.06H16.1477H16.2355H16.3233H16.4111H16.499H16.5869H16.6748H16.7628H16.8507H16.9388H17.0268H17.1149H17.2029H17.291H17.3791H17.4673H17.5554H17.6436H17.7317H17.8199H17.908H17.9962H18.0844H18.1725H18.2607H18.3489H18.437H18.5251H18.6132H18.7014H18.7894H18.8775H18.9656H19.0536H19.1416H19.2296H19.3175H19.4054H19.4933H19.5811H19.669H19.7567H19.8444H19.9321H20.0198H20.1074H20.1949H20.2824H20.3698H20.4572H20.5445H20.6318H20.719H20.8061H20.8932H20.9802H21.0672H21.154H21.2408H21.3275H21.4142H21.5007H21.5872H21.6736H21.7599H21.8461H21.9322H22.0183H22.1042H22.1901H22.2758H22.3614H22.447H22.5324H22.6178H22.703H22.7881H22.8731H22.958H23.0427H23.1274H23.2119H23.2963H23.3806H23.4648H23.5488H23.6327H23.7165H23.8001H23.8836H23.9669H24.0501H24.1332H24.2161H24.2989H24.3815H24.464H24.5463H24.6285H24.7105H24.7923H24.874H24.9556H25.0369H25.1181H25.1991H25.28H25.3606H25.4411H25.5215H25.6016H25.6816H25.7614H25.8409H25.9203H25.9996H26.0786H26.1574H26.236H26.3145H26.3927H26.4707H26.5486H26.6262H26.7036H26.7808H26.8578H26.9346H27.0111H27.0875H27.1636H27.2395H27.3151H27.3906H27.4658H27.5408H27.6155H27.6901H27.7644H27.8384H27.9122H27.9858H28.0591H28.1321H28.205H28.2775H28.3498H28.4219H28.4937H28.5652H28.6365H28.7075H28.7783H28.8488H28.919H28.9889H29.0586H29.128H29.1971H29.266H29.3345H29.4028H29.4708H29.5385H29.6059H29.673H29.7398H29.8064H29.8726H29.9385H30.0042H30.0695H30.1345H30.1992H30.2636H30.3277H30.3915H30.4549H30.5181H30.5809H30.6434H30.7056H30.7674H30.8289H30.8901H30.951H31.0115H31.0717H31.1315H31.191H31.2502H31.309H31.3675H31.4256H31.4834H31.5408H31.5978H31.6545H31.7109H31.7669H31.8225H31.8778H31.9326H31.9872H32.0413H32.0951H32.1485H32.2015H32.2542H32.3064H32.3583H32.4098H32.4609H32.5116H32.5619H32.6119H32.6614H32.7105H32.7593H32.8076H32.8555H32.9031H32.9502H32.9969H33.0432H33.0891H33.1346H33.1796H33.2242H33.2684H33.3122H33.3556H33.3985H33.441H33.4831H33.5247H33.5659H33.6066H33.647H33.6868H33.7263H33.7652H33.8038H33.8419H33.8795H33.9167H33.9534H33.9896H34.0254H34.0608H34.0956H34.1301H34.164H34.1975H34.2304H34.263H34.295H34.3266H34.3576H34.3882H34.4183H34.448H34.4771H34.5057H34.5339H34.5615H34.5887H34.6153H34.6415H34.6671H34.6923H34.7169H34.7411H34.7647H34.7878H34.8104H34.8324H34.854H34.875Z" fill="#191E3B" stroke="white" stroke-width="0.0233468"/>
<path d="M5.61333 7.25626C5.61333 7.42236 5.55801 7.55987 5.46206 7.65582C5.3661 7.75177 5.2286 7.80709 5.0625 7.80709C4.92567 7.80709 4.78787 7.73856 4.68404 7.63473C4.58021 7.5309 4.51167 7.39309 4.51167 7.25626V6.07501C4.51167 5.90891 4.56699 5.77141 4.66294 5.67545C4.7589 5.5795 4.8964 5.52419 5.0625 5.52419C5.2286 5.52419 5.3661 5.5795 5.46206 5.67545C5.55801 5.77141 5.61333 5.90891 5.61333 6.07501V7.25626Z" fill="#191E3B" stroke="white" stroke-width="0.0233468"/>
<path d="M8.20085 7.25626C8.20085 7.42236 8.14554 7.55987 8.04958 7.65582C7.95363 7.75177 7.81612 7.80709 7.65002 7.80709C7.5132 7.80709 7.37539 7.73856 7.27156 7.63473C7.16773 7.5309 7.0992 7.39309 7.0992 7.25626V6.07501C7.0992 5.90891 7.15451 5.77141 7.25047 5.67545C7.34642 5.5795 7.48393 5.52419 7.65002 5.52419C7.81612 5.52419 7.95363 5.5795 8.04958 5.67545C8.14554 5.77141 8.20085 5.90891 8.20085 6.07501V7.25626Z" fill="#191E3B" stroke="white" stroke-width="0.0233468"/>
<path d="M10.7884 7.25626C10.7884 7.42236 10.7331 7.55987 10.6371 7.65582C10.5412 7.75177 10.4036 7.80709 10.2375 7.80709C10.1007 7.80709 9.96291 7.73856 9.85908 7.63473C9.75525 7.5309 9.68672 7.39309 9.68672 7.25626V6.07501C9.68672 5.90891 9.74204 5.77141 9.83799 5.67545C9.93394 5.5795 10.0715 5.52419 10.2375 5.52419C10.4036 5.52419 10.5412 5.5795 10.6371 5.67545C10.7331 5.77141 10.7884 5.90891 10.7884 6.07501V7.25626Z" fill="#191E3B" stroke="white" stroke-width="0.0233468"/>
<path d="M13.3758 7.25626C13.3758 7.42236 13.3205 7.55987 13.2245 7.65582C13.1286 7.75177 12.991 7.80709 12.825 7.80709C12.6881 7.80709 12.5503 7.73856 12.4465 7.63473C12.3427 7.5309 12.2741 7.39309 12.2741 7.25626V6.07501C12.2741 5.90891 12.3294 5.77141 12.4254 5.67545C12.5213 5.5795 12.6589 5.52419 12.825 5.52419C12.991 5.52419 13.1286 5.5795 13.2245 5.67545C13.3205 5.77141 13.3758 5.90891 13.3758 6.07501V7.25626Z" fill="#191E3B" stroke="white" stroke-width="0.0233468"/>
<path d="M15.9633 7.25626C15.9633 7.42236 15.908 7.55987 15.812 7.65582C15.7161 7.75177 15.5786 7.80709 15.4125 7.80709C15.2756 7.80709 15.1378 7.73856 15.034 7.63473C14.9302 7.5309 14.8616 7.39309 14.8616 7.25626V6.07501C14.8616 5.90891 14.917 5.77141 15.0129 5.67545C15.1089 5.5795 15.2464 5.52419 15.4125 5.52419C15.5786 5.52419 15.7161 5.5795 15.812 5.67545C15.908 5.77141 15.9633 5.90891 15.9633 6.07501V7.25626Z" fill="#191E3B" stroke="white" stroke-width="0.0233468"/>
<path d="M18.5508 7.25626C18.5508 7.42236 18.4955 7.55987 18.3996 7.65582C18.3036 7.75177 18.1661 7.80709 18 7.80709C17.6697 7.80709 17.4492 7.53184 17.4492 7.25626V6.07501C17.4492 5.90891 17.5045 5.77141 17.6004 5.67545C17.6964 5.5795 17.8339 5.52419 18 5.52419C18.1661 5.52419 18.3036 5.5795 18.3996 5.67545C18.4955 5.77141 18.5508 5.90891 18.5508 6.07501V7.25626Z" fill="#191E3B" stroke="white" stroke-width="0.0233468"/>
<path d="M21.1384 7.25626C21.1384 7.42236 21.083 7.55987 20.9871 7.65582C20.8911 7.75177 20.7536 7.80709 20.5875 7.80709C20.2572 7.80709 20.0367 7.53184 20.0367 7.25626V6.07501C20.0367 5.90891 20.092 5.77141 20.188 5.67545C20.2839 5.5795 20.4214 5.52419 20.5875 5.52419C20.7536 5.52419 20.8911 5.5795 20.9871 5.67545C21.083 5.77141 21.1384 5.90891 21.1384 6.07501V7.25626Z" fill="#191E3B" stroke="white" stroke-width="0.0233468"/>
<path d="M23.7259 7.25626C23.7259 7.42236 23.6706 7.55987 23.5746 7.65582C23.4787 7.75177 23.3411 7.80709 23.175 7.80709C22.8447 7.80709 22.6242 7.53184 22.6242 7.25626V6.07501C22.6242 5.90891 22.6795 5.77141 22.7755 5.67545C22.8714 5.5795 23.009 5.52419 23.175 5.52419C23.3411 5.52419 23.4787 5.5795 23.5746 5.67545C23.6706 5.77141 23.7259 5.90891 23.7259 6.07501V7.25626Z" fill="#191E3B" stroke="white" stroke-width="0.0233468"/>
<path d="M26.3134 7.25626C26.3134 7.42236 26.2581 7.55987 26.1621 7.65582C26.0662 7.75177 25.9287 7.80709 25.7626 7.80709C25.4323 7.80709 25.2117 7.53184 25.2117 7.25626V6.07501C25.2117 5.90891 25.2671 5.77141 25.363 5.67545C25.459 5.5795 25.5965 5.52419 25.7626 5.52419C25.9287 5.52419 26.0662 5.5795 26.1621 5.67545C26.2581 5.77141 26.3134 5.90891 26.3134 6.07501V7.25626Z" fill="#191E3B" stroke="white" stroke-width="0.0233468"/>
<path d="M7.58208 23.1188C7.58208 23.2849 7.52676 23.4224 7.43081 23.5183C7.33485 23.6143 7.19735 23.6696 7.03125 23.6696C6.70094 23.6696 6.48042 23.3944 6.48042 23.1188V12.15C6.48042 11.9839 6.53574 11.8464 6.63169 11.7505C6.72765 11.6545 6.86515 11.5992 7.03125 11.5992C7.19735 11.5992 7.33485 11.6545 7.43081 11.7505C7.52676 11.8464 7.58208 11.9839 7.58208 12.15V23.1188Z" fill="#191E3B" stroke="white" stroke-width="0.0233468"/>
</svg>
