<svg width="36" height="31" viewBox="0 0 36 31" fill="none" xmlns="http://www.w3.org/2000/svg">
<path d="M28.3526 13.3835L28.3428 13.3843C28.3111 13.3871 28.2797 13.3926 28.2487 13.4009L28.2334 13.405L28.2185 13.3996L22.3834 11.2569C22.1685 11.178 21.9275 11.227 21.7606 11.3838L28.3526 13.3835ZM28.3526 13.3835L28.3614 13.379L33.7425 10.6131L33.8435 10.5612L33.737 10.5218L9.24949 1.44953L9.20247 1.43211L9.18518 1.47918L6.70391 8.23524L6.68667 8.28218L6.73361 8.29941L19.8703 13.1235L19.8993 13.1342L19.9218 13.113L21.7606 11.3838L28.3526 13.3835ZM35.5518 9.90475L35.574 9.91296L35.5768 9.91131C35.7091 9.96608 35.8179 10.0663 35.8834 10.1943L35.8834 10.1943C36.0356 10.4914 35.9181 10.8557 35.6211 11.0079L35.621 11.0079L31.6536 13.045L31.6114 13.0667L31.6308 13.1099C31.954 13.8312 32.0489 14.6341 31.9028 15.411L31.9519 15.4203L31.9028 15.411C31.5074 17.5133 29.4824 18.897 27.3798 18.5014L27.3382 18.4936L27.3237 18.5333L27.0784 19.2015C26.9909 19.4395 26.7641 19.5975 26.5106 19.5975C26.4396 19.5975 26.3694 19.5851 26.3027 19.5605L26.3026 19.5605L20.7732 17.5316L20.7263 17.5144L20.7091 17.5613L20.2575 18.7904C20.0329 19.4018 19.5822 19.9037 18.9988 20.193L18.971 20.2068V20.2378V27.4879C18.971 28.5447 18.1142 29.4015 17.0574 29.4015C16.0007 29.4015 15.1442 28.5447 15.1442 27.4879V26.8334V26.7834H15.0942H6.28804H6.25534L6.24223 26.8134C5.82246 27.7733 4.96344 28.4698 3.93752 28.6826L3.89767 28.6909V28.7316V30.1057C3.89767 30.4398 3.62727 30.7102 3.29316 30.7102H0.654513C0.320662 30.7102 0.05 30.4398 0.05 30.1057V19.6343C0.05 19.3005 0.320675 19.0298 0.654513 19.0298H3.29316C3.62726 19.0298 3.89767 19.3005 3.89767 19.6343V21.0087V21.0494L3.93753 21.0577C4.96344 21.2703 5.82246 21.967 6.24224 22.9267L6.25534 22.9566H6.28804H15.0942H15.1442V22.9066V19.5668V19.5409L15.123 19.5259C14.1813 18.862 13.8059 17.6467 14.2083 16.5671L14.2084 16.5669L14.6599 15.3378L14.6771 15.2909L14.6302 15.2736L8.48609 13.0179C8.48608 13.0178 8.48608 13.0178 8.48607 13.0178C8.17278 12.9027 8.01222 12.5557 8.12714 12.2424L8.80389 10.3986L8.82112 10.3517L8.77419 10.3344L5.70268 9.20668L5.69433 9.20361H5.69397C5.38609 9.08545 5.22929 8.74125 5.34345 8.43068L5.34346 8.43067L8.27317 0.455997L8.27354 0.455627L8.27735 0.445279C8.39276 0.132028 8.74053 -0.0280507 9.05356 0.0876244L35.5518 9.90475ZM16.4199 20.1161L16.3529 20.0918V20.1631V22.9066V22.9566H16.4029H17.7119H17.7619V22.9066V20.51V20.4621L17.7141 20.46C17.4574 20.449 17.2036 20.3991 16.9617 20.3124L16.4199 20.1161ZM2.63892 29.5015H2.68892V29.4515V20.2889V20.2389H2.63892H1.30903H1.25903V20.2889V29.4515V29.5015H1.30903H2.63892ZM5.3067 25.5248V25.5247V24.2157V24.2156C5.30557 23.3625 4.76821 22.6024 3.9644 22.3171L3.89767 22.2934V22.3642V27.3762V27.447L3.96441 27.4233C4.76821 27.1377 5.30557 26.3776 5.3067 25.5248ZM6.58605 24.1657H6.53605V24.2157V25.5247V25.5747H6.58605H17.7119H17.7619V25.5247V24.2157V24.1657H17.7119H6.58605ZM16.4029 26.7834H16.3529V26.8334V27.4879C16.3529 27.877 16.6684 28.1925 17.0574 28.1925C17.4465 28.1925 17.7619 27.877 17.7619 27.4879V26.8334V26.7834H17.7119H16.4029ZM19.5744 17.1451L19.5916 17.0981L19.5446 17.0809L19.1742 16.9452L19.1741 16.9452L15.8568 15.7274L15.8099 15.7101L15.7927 15.757L15.3408 16.9853L15.3378 16.9937V16.994C15.0851 17.6964 15.4466 18.472 16.1481 18.7296L16.1481 18.7296L17.3791 19.1806C17.3791 19.1806 17.3791 19.1806 17.3792 19.1806C18.0835 19.4389 18.8639 19.0779 19.1228 18.3742L19.1228 18.3742L19.5744 17.1451ZM26.1053 18.2022L26.1522 18.2195L26.1695 18.1725L27.523 14.4863L27.5402 14.4394L27.4933 14.4222L22.344 12.5309L22.315 12.5202L22.2925 12.5414L20.456 14.2703C20.456 14.2703 20.456 14.2703 20.4559 14.2703C20.2887 14.4266 20.0476 14.4756 19.8326 14.3974L10.0033 10.7879L9.95637 10.7707L9.93912 10.8176L9.48731 12.0467L9.47005 12.0936L9.517 12.1109L26.1053 18.2022ZM30.5945 15.6148L30.5946 15.6144C30.8228 14.9843 30.8032 14.2905 30.5397 13.6741L30.5186 13.6247L30.4709 13.6493L28.8191 14.4999L28.8017 14.5088L28.795 14.5271L27.7837 17.282L27.7614 17.3427L27.8258 17.349C29.0352 17.4662 30.1718 16.7542 30.5945 15.6148Z" fill="#191E3B" stroke="white" stroke-width="0.1"/>
</svg>
