<svg width="34" height="35" viewBox="0 0 34 35" fill="none" xmlns="http://www.w3.org/2000/svg">
<path d="M24.2654 25.0165L20.8382 20.2534C20.2109 19.3815 19.1992 18.8643 18.1213 18.8643H12.5319C11.491 18.8643 10.5096 19.3468 9.87747 20.1695L6.15283 25.0165H24.2654Z" stroke="#191E3B" stroke-width="1.17333" stroke-miterlimit="10" stroke-linecap="round" stroke-linejoin="round"/>
<path d="M20.8969 31.7671H24.2655V25.0165H4.96582C2.78461 25.0165 1 26.8014 1 28.9828V31.7672H4.72779" stroke="#191E3B" stroke-width="1.17333" stroke-miterlimit="10" stroke-linecap="round" stroke-linejoin="round"/>
<path d="M9.60071 31.7671H16.1015" stroke="#191E3B" stroke-width="1.17333" stroke-miterlimit="10" stroke-linecap="round" stroke-linejoin="round"/>
<path d="M18.5001 34.0418C19.763 34.0418 20.7867 33.0234 20.7867 31.7671C20.7867 30.5109 19.763 29.4925 18.5001 29.4925C17.2372 29.4925 16.2135 30.5109 16.2135 31.7671C16.2135 33.0234 17.2372 34.0418 18.5001 34.0418Z" stroke="#191E3B" stroke-width="1.17333" stroke-miterlimit="10" stroke-linecap="round" stroke-linejoin="round"/>
<path d="M7.15294 34.0418C8.4158 34.0418 9.43955 33.0234 9.43955 31.7671C9.43955 30.5109 8.4158 29.4925 7.15294 29.4925C5.89008 29.4925 4.86633 30.5109 4.86633 31.7671C4.86633 33.0234 5.89008 34.0418 7.15294 34.0418Z" stroke="#191E3B" stroke-width="1.17333" stroke-miterlimit="10" stroke-linecap="round" stroke-linejoin="round"/>
<path d="M13.255 25.1389V31.622" stroke="#191E3B" stroke-width="1.17333" stroke-miterlimit="10" stroke-linecap="round" stroke-linejoin="round"/>
<path d="M27.0945 16.5809H24.2655V34.0418H27.0945V16.5809Z" stroke="#191E3B" stroke-width="1.17333" stroke-miterlimit="10" stroke-linecap="round" stroke-linejoin="round"/>
<path d="M30.7994 16.5809H20.5608C19.3454 16.5809 18.3601 15.5956 18.3601 14.3802V3.16707C18.3601 1.95167 19.3454 0.96637 20.5608 0.96637H30.7994C32.0148 0.96637 33.0001 1.95167 33.0001 3.16707V14.3802C33.0001 15.5956 32.0148 16.5809 30.7994 16.5809Z" stroke="#191E3B" stroke-width="1.17333" stroke-miterlimit="10" stroke-linecap="round" stroke-linejoin="round"/>
<path d="M24.2655 4.95154V12.5957" stroke="#191E3B" stroke-width="1.17333" stroke-miterlimit="10" stroke-linecap="round" stroke-linejoin="round"/>
<path d="M28.593 7.10892C28.593 8.30032 27.5851 9.26613 26.3938 9.26613C25.803 9.26613 24.2804 9.27568 24.2804 9.27568C24.2804 9.27568 24.2708 7.70953 24.2708 7.10899C24.2708 6.61573 24.2655 4.95178 24.2655 4.95178C24.2655 4.95178 25.6957 4.95178 26.3937 4.95178C27.5851 4.95172 28.593 5.91753 28.593 7.10892Z" stroke="#191E3B" stroke-width="1.17333" stroke-miterlimit="10" stroke-linecap="round" stroke-linejoin="round"/>
</svg>
