<svg width="32" height="30" viewBox="0 0 32 30" fill="none" xmlns="http://www.w3.org/2000/svg">
<path d="M2.20691 29.2414C2.20691 29.3877 2.26504 29.5281 2.36851 29.6315C2.47197 29.735 2.61231 29.7931 2.75863 29.7931H29.2414C29.3877 29.7931 29.5281 29.735 29.6315 29.6315C29.735 29.5281 29.7931 29.3877 29.7931 29.2414V25.9311C29.7931 25.7847 29.735 25.6444 29.6315 25.5409C29.5281 25.4375 29.3877 25.3793 29.2414 25.3793H27.5862V23.7242C27.5862 23.5779 27.5281 23.4375 27.4246 23.334C27.3212 23.2306 27.1808 23.1725 27.0345 23.1725H25.3793V16C25.3793 13.5125 24.3911 11.1268 22.6322 9.36786C20.8732 7.6089 18.4876 6.62073 16 6.62073C13.5125 6.62073 11.1268 7.6089 9.36784 9.36786C7.60888 11.1268 6.6207 13.5125 6.6207 16V23.1725H4.96553C4.8192 23.1725 4.67887 23.2306 4.5754 23.334C4.47193 23.4375 4.41381 23.5779 4.41381 23.7242V25.3793H2.75863C2.61231 25.3793 2.47197 25.4375 2.36851 25.5409C2.26504 25.6444 2.20691 25.7847 2.20691 25.9311V29.2414ZM7.72415 16C7.72415 13.8051 8.59607 11.7001 10.1481 10.1481C11.7001 8.59609 13.8051 7.72418 16 7.72418C18.1949 7.72418 20.2999 8.59609 21.8519 10.1481C23.404 11.7001 24.2759 13.8051 24.2759 16V23.1725H7.72415V16ZM5.51725 24.2759H26.4828V25.3793H5.51725V24.2759ZM3.31036 26.4828H28.6897V28.6897H3.31036V26.4828Z" fill="#191E3B"/>
<path d="M20.1159 13.098C20.0679 13.1439 20.0287 13.1981 20 13.258C19.9393 13.3849 19.8621 13.5173 19.7904 13.6442L19.7517 13.7104C19.4852 14.1704 19.1688 14.5996 18.8083 14.9904C18.7752 12.3697 17.5173 9.98623 15.5917 8.9214C15.4985 8.86883 15.3921 8.8445 15.2853 8.85135C15.1785 8.85821 15.0761 8.89597 14.9904 8.96002L14.9242 9.00968C14.8596 9.06725 14.8095 9.13919 14.7779 9.21969C14.7462 9.3002 14.734 9.38701 14.7421 9.47313C14.7421 9.6883 14.7697 9.89795 14.7697 10.1186C14.7988 11.1898 14.5975 12.2548 14.1793 13.2414C13.9205 13.8468 13.5215 14.3819 13.0152 14.8028C12.73 14.4694 12.4752 14.1112 12.2538 13.7324C12.1655 13.578 12.0717 13.4124 11.989 13.258C11.962 13.2048 11.9266 13.1563 11.8842 13.1145C11.8197 13.0591 11.7442 13.0181 11.6626 12.9942C11.5811 12.9704 11.4953 12.9643 11.4112 12.9763C11.3271 12.9883 11.2465 13.0182 11.1749 13.0639C11.1032 13.1096 11.0422 13.1701 10.9959 13.2414C10.1683 14.7586 10.3559 16.9711 11.4759 18.8855C12.5021 20.6345 14.091 21.8207 15.6855 22.0524C15.7895 22.0692 15.8949 22.0747 16 22.069C16.0935 22.0794 16.1879 22.0794 16.2814 22.069C17.1793 21.8853 18.0256 21.5057 18.7599 20.9574C19.4943 20.409 20.0985 19.7053 20.5297 18.8966C21.6331 16.9876 21.8373 14.7752 21.0097 13.258C20.9662 13.1833 20.907 13.119 20.8363 13.0695C20.7655 13.02 20.6848 12.9865 20.5998 12.9713C20.5148 12.9561 20.4274 12.9595 20.3439 12.9814C20.2603 13.0033 20.1825 13.043 20.1159 13.098ZM19.5642 18.3062C19.2121 18.976 18.7183 19.5609 18.117 20.0202C17.5157 20.4795 16.8215 20.8021 16.0828 20.9655C16.0828 20.9655 16.0497 20.9931 15.8786 20.9655C14.5986 20.7835 13.2745 19.7683 12.4248 18.3228C11.7742 17.2732 11.4944 16.0357 11.6304 14.8083C11.8996 15.2015 12.2024 15.5707 12.5352 15.9117C12.619 15.9973 12.7284 16.0533 12.8469 16.0712C12.9653 16.0891 13.0864 16.068 13.1917 16.0111C14.0853 15.4777 14.7836 14.6711 15.1835 13.7104C15.6239 12.6909 15.8547 11.5933 15.8621 10.4828C16.4603 11.094 16.9313 11.8179 17.2476 12.6125C17.564 13.4071 17.7194 14.2566 17.7048 15.1117C17.7067 15.4812 17.6791 15.8502 17.6221 16.2152C17.603 16.3222 17.616 16.4325 17.6595 16.5322C17.7029 16.6319 17.7748 16.7165 17.8662 16.7755C17.9575 16.8344 18.0643 16.8651 18.173 16.8635C18.2817 16.862 18.3876 16.8284 18.4773 16.7669C19.2262 16.2512 19.8703 15.5978 20.3752 14.8414C20.4961 16.0529 20.215 17.2704 19.5752 18.3062H19.5642Z" fill="#191E3B"/>
<path d="M23.1724 4.41382V5.51727C24.0503 5.51727 24.8923 5.86603 25.5131 6.48684C26.1339 7.10765 26.4827 7.94965 26.4827 8.82761H27.5862C27.5862 7.657 27.1211 6.53434 26.2934 5.70659C25.4656 4.87884 24.343 4.41382 23.1724 4.41382Z" fill="#191E3B"/>
<path d="M29.7931 8.8276C29.7931 7.07168 29.0955 5.38768 27.8539 4.14606C26.6123 2.90444 24.9283 2.20691 23.1724 2.20691V3.31036C24.6356 3.31036 26.039 3.89164 27.0736 4.92632C28.1083 5.961 28.6896 7.36434 28.6896 8.8276H29.7931Z" fill="#191E3B"/>
<path d="M23.1724 0V1.10345C24.1867 1.10345 25.1911 1.30324 26.1283 1.69141C27.0654 2.07959 27.9169 2.64854 28.6342 3.3658C29.3514 4.08305 29.9204 4.93455 30.3085 5.87169C30.6967 6.80882 30.8965 7.81324 30.8965 8.82759H31.9999C31.9999 6.48637 31.0699 4.24103 29.4144 2.58554C27.7589 0.930047 25.5136 0 23.1724 0Z" fill="#191E3B"/>
<path d="M5.51727 8.82761C5.51727 7.94965 5.86603 7.10765 6.48684 6.48684C7.10765 5.86603 7.94965 5.51727 8.82761 5.51727V4.41382C7.657 4.41382 6.53433 4.87884 5.70659 5.70659C4.87884 6.53434 4.41382 7.657 4.41382 8.82761H5.51727Z" fill="#191E3B"/>
<path d="M8.8276 2.20691C7.07168 2.20691 5.38768 2.90444 4.14606 4.14606C2.90444 5.38768 2.20691 7.07168 2.20691 8.8276H3.31036C3.31036 7.36434 3.89164 5.961 4.92632 4.92632C5.961 3.89164 7.36434 3.31036 8.8276 3.31036V2.20691Z" fill="#191E3B"/>
<path d="M1.10345 8.82759C1.10345 6.77902 1.91724 4.81435 3.3658 3.3658C4.81435 1.91724 6.77902 1.10345 8.82759 1.10345V0C6.48636 0 4.24103 0.930047 2.58554 2.58554C0.930047 4.24103 0 6.48637 0 8.82759H1.10345Z" fill="#191E3B"/>
</svg>
