<svg width="25" height="25" viewBox="0 0 25 25" fill="none" xmlns="http://www.w3.org/2000/svg">
<mask id="mask0_14_436" style="mask-type:luminance" maskUnits="userSpaceOnUse" x="0" y="0" width="25" height="25">
<path d="M0 0H25V25H0V0Z" fill="white"/>
</mask>
<g mask="url(#mask0_14_436)">
<path d="M14.7462 24.0235V21.0104C14.8989 21.0644 15.0632 21.0938 15.2344 21.0938C16.0435 21.0938 16.6993 20.438 16.6993 19.629C16.6993 18.82 16.0435 18.1641 15.2344 18.1641C15.0632 18.1641 14.8989 18.1936 14.7462 18.2476V11.2447C14.5934 11.2987 14.4291 11.3282 14.2579 11.3282C13.4488 11.3282 12.793 10.6724 12.793 9.86334C12.793 9.05436 13.4488 8.3985 14.2579 8.3985C14.4291 8.3985 14.5934 8.42799 14.7462 8.48195V4.98053H24.0235C24.2921 4.98053 24.5118 5.20026 24.5118 5.46881V24.0235C24.5118 24.2921 24.2921 24.5118 24.0235 24.5118H5.46881C5.20026 24.5118 4.98053 24.2921 4.98053 24.0235V14.7462H8.48195C8.42799 14.8989 8.3985 15.0632 8.3985 15.2345C8.3985 16.0435 9.05431 16.6993 9.86334 16.6993C10.6724 16.6993 11.3282 16.0435 11.3282 15.2345C11.3282 15.0632 11.2987 14.8989 11.2447 14.7462H18.2476C18.1936 14.5934 18.1641 14.4291 18.1641 14.2579C18.1641 13.4488 18.8199 12.793 19.629 12.793C20.438 12.793 21.0938 13.4488 21.0938 14.2579C21.0938 14.4291 21.0643 14.5934 21.0104 14.7462H24.0235" stroke="#191E3B" stroke-width="0.976562" stroke-miterlimit="22.926" stroke-linecap="round" stroke-linejoin="round"/>
<path d="M1.46484 0.488233H0.976562C0.708008 0.488233 0.488281 0.70796 0.488281 0.976514V10.2539H3.9897C3.93574 10.4066 3.90625 10.5709 3.90625 10.7421C3.90625 11.5512 4.56206 12.207 5.37109 12.207C6.18008 12.207 6.83594 11.5512 6.83594 10.7421C6.83594 10.5709 6.80645 10.4066 6.75249 10.2539H10.2539V6.75244C10.1012 6.8064 9.93682 6.83589 9.76562 6.83589C8.95659 6.83589 8.30073 6.18008 8.30073 5.37105C8.30073 4.56206 8.95659 3.9062 9.76562 3.9062C9.93682 3.9062 10.1012 3.93569 10.2539 3.98965V0.488233H5.85938" stroke="#191E3B" stroke-width="0.976562" stroke-miterlimit="22.926" stroke-linecap="round" stroke-linejoin="round"/>
<path d="M3.66196 0.48822H3.66321" stroke="#191E3B" stroke-width="0.976562" stroke-miterlimit="2.613" stroke-linecap="round" stroke-linejoin="round"/>
</g>
</svg>
