<svg width="25" height="25" viewBox="0 0 25 25" fill="none" xmlns="http://www.w3.org/2000/svg">
<path d="M12.4999 6.39498C13.1481 6.39498 13.6751 5.86779 13.6751 5.21986C13.6751 4.57175 13.1479 4.04456 12.4999 4.04456C11.852 4.04456 11.3248 4.57175 11.3248 5.21986C11.3248 5.86779 11.852 6.39498 12.4999 6.39498ZM12.4999 4.77698C12.7441 4.77698 12.9426 4.97572 12.9426 5.21986C12.9426 5.46381 12.7441 5.66256 12.4999 5.66256C12.2558 5.66256 12.0573 5.464 12.0573 5.21986C12.0573 4.97572 12.2558 4.77698 12.4999 4.77698Z" fill="white"/>
<path d="M24.6338 22.4982H24.1911V21.2466C24.1911 21.0444 24.0271 20.8804 23.8249 20.8804H22.5733V19.6288C22.5733 19.4266 22.4094 19.2626 22.2071 19.2626H21.7646V11.2484H22.2071C22.4094 11.2484 22.5733 11.0844 22.5733 10.8822V9.63063H23.8249C24.0273 9.63063 24.1911 9.4666 24.1911 9.26442V7.64661C24.1911 7.44443 24.0273 7.2804 23.8249 7.2804H23.1304L12.7085 0.0650883C12.5832 -0.0216961 12.417 -0.0216961 12.2915 0.0650883L1.86977 7.2804H1.17512C0.972939 7.2804 0.808907 7.44424 0.808907 7.64661V9.26442C0.808907 9.4666 0.972939 9.63063 1.17512 9.63063H2.42672V10.8822C2.42672 11.0844 2.59075 11.2484 2.79293 11.2484H3.23563V19.2626H2.79293C2.59075 19.2626 2.42672 19.4264 2.42672 19.6288V20.8804H1.17512C0.972939 20.8804 0.808907 21.0444 0.808907 21.2466V22.4982H0.366211C0.163841 22.4982 0 22.662 0 22.8644V24.482C0 24.6844 0.163841 24.8482 0.366211 24.8482H24.6338C24.8362 24.8482 25 24.6844 25 24.482V22.8644C25 22.6622 24.8362 22.4982 24.6338 22.4982ZM21.8409 20.8804H18.5287V19.995H21.8409V20.8804ZM19.3375 19.2626V11.2484H21.032V19.2626H19.3375ZM21.8409 10.516H18.5287V9.63063H21.8409V10.516ZM18.1625 11.2484H18.605V19.2626H18.1625C17.9602 19.2626 17.7963 19.4264 17.7963 19.6288V20.8804H14.8886V19.6288C14.8886 19.4264 14.7245 19.2626 14.5224 19.2626H14.0797V11.2484H14.5224C14.7245 11.2484 14.8886 11.0844 14.8886 10.8822V9.63063H17.7963V10.8822C17.7963 11.0844 17.9602 11.2484 18.1625 11.2484ZM10.844 9.63063H14.1562V10.516H10.844V9.63063ZM11.6528 11.2484H13.3472V19.2626H11.6528V11.2484ZM14.1562 19.995V20.8804H10.844V19.995H14.1562ZM1.54133 8.01282H1.98421H1.9846H1.98479H7.93209C8.13446 8.01282 8.2983 7.84879 8.2983 7.64661C8.2983 7.44424 8.13446 7.2804 7.93209 7.2804H3.15647L12.5 0.811625L21.8437 7.2804H9.39693C9.19476 7.2804 9.03072 7.44424 9.03072 7.64661C9.03072 7.84879 9.19476 8.01282 9.39693 8.01282H23.011H23.0122H23.4587V8.89821H1.54133V8.01282ZM3.15914 9.63063H6.47144V10.516H3.15914V9.63063ZM5.66254 11.2484V19.2626H3.96805V11.2484H5.66254ZM3.15914 19.995H6.47144V20.8804H3.15914V19.995ZM6.83765 19.2626H6.39496V11.2484H6.83765C7.03983 11.2484 7.20387 11.0844 7.20387 10.8822V9.63063H10.1116V10.8822C10.1116 11.0844 10.2755 11.2484 10.4778 11.2484H10.9203V19.2626H10.4778C10.2755 19.2626 10.1116 19.4264 10.1116 19.6288V20.8804H7.20387V19.6288C7.20387 19.4264 7.03983 19.2626 6.83765 19.2626ZM1.54133 21.6128H23.4587V22.4982H1.54133V21.6128ZM24.2676 24.116H0.732422V23.2306H24.2676V24.116Z" fill="white"/>
</svg>
