<svg width="138" height="25" viewBox="0 0 138 25" fill="none" xmlns="http://www.w3.org/2000/svg">
<path d="M11.9139 1.29181C12.0984 0.827316 12.7559 0.827316 12.9404 1.29181L15.4901 7.70878C15.569 7.90716 15.755 8.04236 15.9681 8.05602L22.8589 8.49798C23.3577 8.52997 23.5608 9.15524 23.1761 9.4743L17.8611 13.8822C17.6968 14.0184 17.6257 14.2372 17.6785 14.444L19.3876 21.1341C19.5113 21.6184 18.9794 22.0048 18.5571 21.7375L12.7225 18.0448C12.5422 17.9306 12.3121 17.9306 12.1318 18.0448L6.29722 21.7375C5.87488 22.0048 5.343 21.6184 5.46671 21.1341L7.17576 14.444C7.22859 14.2372 7.15752 14.0184 6.9932 13.8822L1.6782 9.4743C1.29347 9.15524 1.49663 8.52997 1.99543 8.49798L8.88623 8.05602C9.09926 8.04236 9.28534 7.90716 9.36416 7.70878L11.9139 1.29181Z" fill="#F2CC00"/>
<path d="M40.0822 1.29187C40.2668 0.827377 40.9242 0.827377 41.1088 1.29187L43.6585 7.70885C43.7373 7.90722 43.9234 8.04242 44.1364 8.05608L51.0272 8.49804C51.526 8.53003 51.7292 9.1553 51.3444 9.47436L46.0294 13.8822C45.8651 14.0185 45.794 14.2372 45.8469 14.4441L47.5559 21.1342C47.6796 21.6185 47.1477 22.0049 46.7254 21.7376L40.8909 18.0448C40.7105 17.9307 40.4805 17.9307 40.3001 18.0448L34.4656 21.7376C34.0432 22.0049 33.5113 21.6185 33.635 21.1342L35.3441 14.4441C35.3969 14.2372 35.3259 14.0185 35.1615 13.8822L29.8465 9.47436C29.4618 9.1553 29.665 8.53003 30.1638 8.49804L37.0546 8.05608C37.2676 8.04242 37.4537 7.90722 37.5325 7.70885L40.0822 1.29187Z" fill="#F2CC00"/>
<path d="M68.2497 1.29187C68.4342 0.827377 69.0917 0.827377 69.2762 1.29187L71.8259 7.70885C71.9048 7.90722 72.0909 8.04242 72.3039 8.05608L79.1947 8.49804C79.6935 8.53003 79.8966 9.1553 79.5119 9.47436L74.1969 13.8822C74.0326 14.0185 73.9615 14.2372 74.0144 14.4441L75.7234 21.1342C75.8471 21.6185 75.3152 22.0049 74.8929 21.7376L69.0583 18.0448C68.878 17.9307 68.648 17.9307 68.4676 18.0448L62.633 21.7376C62.2107 22.0049 61.6788 21.6185 61.8025 21.1342L63.5116 14.4441C63.5644 14.2372 63.4933 14.0185 63.329 13.8822L58.014 9.47436C57.6293 9.1553 57.8324 8.53003 58.3312 8.49804L65.222 8.05608C65.4351 8.04242 65.6212 7.90722 65.7 7.70885L68.2497 1.29187Z" fill="#F2CC00"/>
<path d="M96.4181 1.29187C96.6027 0.827377 97.2601 0.827377 97.4447 1.29187L99.9944 7.70885C100.073 7.90722 100.259 8.04242 100.472 8.05608L107.363 8.49804C107.862 8.53003 108.065 9.1553 107.68 9.47436L102.365 13.8822C102.201 14.0185 102.13 14.2372 102.183 14.4441L103.892 21.1342C104.016 21.6185 103.484 22.0049 103.061 21.7376L97.2268 18.0448C97.0464 17.9307 96.8164 17.9307 96.636 18.0448L90.8015 21.7376C90.3792 22.0049 89.8473 21.6185 89.971 21.1342L91.68 14.4441C91.7329 14.2372 91.6618 14.0185 91.4975 13.8822L86.1825 9.47436C85.7977 9.1553 86.0009 8.53003 86.4997 8.49804L93.3905 8.05608C93.6035 8.04242 93.7896 7.90722 93.8684 7.70885L96.4181 1.29187Z" fill="#F2CC00"/>
<path d="M124.587 1.29187C124.772 0.827377 125.429 0.827377 125.614 1.29187L128.163 7.70885C128.242 7.90722 128.428 8.04242 128.641 8.05608L135.532 8.49804C136.031 8.53003 136.234 9.1553 135.849 9.47436L130.534 13.8822C130.37 14.0185 130.299 14.2372 130.352 14.4441L132.061 21.1342C132.184 21.6185 131.653 22.0049 131.23 21.7376L125.396 18.0448C125.215 17.9307 124.985 17.9307 124.805 18.0448L118.97 21.7376C118.548 22.0049 118.016 21.6185 118.14 21.1342L119.849 14.4441C119.902 14.2372 119.831 14.0185 119.666 13.8822L114.351 9.47436C113.967 9.1553 114.17 8.53003 114.669 8.49804L121.559 8.05608C121.772 8.04242 121.958 7.90722 122.037 7.70885L124.587 1.29187Z" fill="#EEEEEE"/>
<path fill-rule="evenodd" clip-rule="evenodd" d="M125.207 0.95769C124.96 0.901314 124.678 1.0127 124.567 1.29185L122.018 7.70883C121.939 7.9072 121.753 8.0424 121.54 8.05606L114.649 8.49802C114.15 8.53001 113.947 9.15528 114.332 9.47434L119.647 13.8822C119.811 14.0185 119.882 14.2372 119.829 14.444L118.12 21.1342C117.997 21.6184 118.528 22.0049 118.951 21.7376L124.785 18.0448C124.913 17.9641 125.065 17.9404 125.207 17.9739V0.95769Z" fill="#F2CC00"/>
</svg>
