<svg width="41" height="41" viewBox="0 0 41 41" fill="none" xmlns="http://www.w3.org/2000/svg">
<path d="M19.9937 1.16945C20.1607 0.74895 20.7559 0.74895 20.923 1.16945L25.5964 12.9314C25.6678 13.111 25.8363 13.2334 26.0291 13.2457L38.6596 14.0558C39.1111 14.0848 39.295 14.6508 38.9467 14.9397L29.2046 23.019C29.0559 23.1424 28.9915 23.3404 29.0394 23.5276L32.172 35.7902C32.284 36.2286 31.8025 36.5785 31.4201 36.3365L20.7257 29.5679C20.5624 29.4645 20.3542 29.4645 20.1909 29.5679L9.49653 36.3365C9.1142 36.5785 8.6327 36.2286 8.74469 35.7902L11.8773 23.5276C11.9251 23.3404 11.8608 23.1424 11.712 23.019L1.96992 14.9397C1.62164 14.6508 1.80556 14.0848 2.2571 14.0558L14.8876 13.2457C15.0804 13.2334 15.2489 13.111 15.3202 12.9314L19.9937 1.16945Z" fill="#191E3B"/>
</svg>
