<svg width="51" height="55" viewBox="0 0 51 55" fill="none" xmlns="http://www.w3.org/2000/svg">
<mask id="path-1-inside-1_54_331" fill="white">
<path d="M50.7416 15.3087C50.7437 14.6059 50.5334 13.9188 50.1384 13.3376C49.7433 12.7563 49.1819 12.3079 48.5277 12.0511C47.8735 11.7943 47.157 11.741 46.472 11.8984C45.787 12.0557 45.1656 12.4162 44.689 12.9328L28.7592 4.33717C28.8311 4.06352 28.869 3.78205 28.872 3.49913C28.872 2.5711 28.5034 1.68108 27.8472 1.02487C27.191 0.368657 26.3009 0 25.3729 0C24.4449 0 23.5549 0.368657 22.8987 1.02487C22.2424 1.68108 21.8738 2.5711 21.8738 3.49913C21.8768 3.78205 21.9147 4.06352 21.9866 4.33717L6.05685 12.9328C5.68836 12.5342 5.23199 12.227 4.72399 12.0357C4.216 11.8444 3.67038 11.7743 3.13051 11.8308C2.59064 11.8873 2.07139 12.0689 1.61402 12.3613C1.15666 12.6537 0.773785 13.0487 0.495831 13.5149C0.217877 13.9812 0.0525029 14.5058 0.0128505 15.0472C-0.0268018 15.5886 0.0603606 16.1317 0.267411 16.6335C0.474462 17.1353 0.795693 17.5819 1.20558 17.9378C1.61546 18.2936 2.1027 18.549 2.62858 18.6836V35.5529C2.10222 35.6871 1.61443 35.9423 1.20403 36.2982C0.793628 36.6541 0.471928 37.1008 0.264517 37.6028C0.0571063 38.1049 -0.0302919 38.6484 0.00927388 39.1902C0.0488397 39.7319 0.214278 40.257 0.49243 40.7236C0.770581 41.1902 1.15377 41.5854 1.61152 41.8779C2.06928 42.1704 2.58896 42.352 3.12924 42.4083C3.66952 42.4646 4.21549 42.3941 4.72373 42.2024C5.23196 42.0106 5.68844 41.7029 6.05685 41.3037L21.9866 49.8993C21.9147 50.173 21.8768 50.4544 21.8738 50.7374C21.8738 51.6654 22.2424 52.5554 22.8987 53.2116C23.5549 53.8678 24.4449 54.2365 25.3729 54.2365C26.3009 54.2365 27.191 53.8678 27.8472 53.2116C28.5034 52.5554 28.872 51.6654 28.872 50.7374C28.869 50.4544 28.8311 50.173 28.7592 49.8993L44.689 41.3037C45.0575 41.7023 45.5138 42.0094 46.0218 42.2008C46.5298 42.3921 47.0754 42.4622 47.6153 42.4057C48.1552 42.3492 48.6744 42.1675 49.1318 41.8752C49.5892 41.5828 49.972 41.1878 50.25 40.7216C50.528 40.2553 50.6933 39.7306 50.733 39.1893C50.7726 38.6479 50.6855 38.1047 50.4784 37.603C50.2714 37.1012 49.9501 36.6546 49.5402 36.2987C49.1304 35.9428 48.6431 35.6875 48.1172 35.5529V18.6836C48.8662 18.4902 49.5299 18.0541 50.0048 17.4435C50.4796 16.8329 50.7387 16.0822 50.7416 15.3087ZM25.3729 1.74956C25.7189 1.74956 26.0572 1.85217 26.3449 2.04442C26.6326 2.23666 26.8569 2.50991 26.9893 2.8296C27.1217 3.14929 27.1564 3.50107 27.0889 3.84045C27.0214 4.17983 26.8547 4.49158 26.61 4.73626C26.3654 4.98094 26.0536 5.14757 25.7142 5.21508C25.3749 5.28258 25.0231 5.24794 24.7034 5.11552C24.3837 4.98309 24.1104 4.75885 23.9182 4.47113C23.726 4.18342 23.6234 3.84516 23.6234 3.49913C23.6234 3.03512 23.8077 2.59011 24.1358 2.262C24.4639 1.93389 24.9089 1.74956 25.3729 1.74956ZM1.7538 15.3087C1.7538 14.9627 1.85641 14.6244 2.04865 14.3367C2.2409 14.049 2.51414 13.8247 2.83383 13.6923C3.15352 13.5599 3.5053 13.5252 3.84469 13.5927C4.18407 13.6602 4.49581 13.8269 4.74049 14.0716C4.98517 14.3162 5.1518 14.628 5.21931 14.9674C5.28682 15.3067 5.25217 15.6585 5.11975 15.9782C4.98733 16.2979 4.76308 16.5712 4.47537 16.7634C4.18765 16.9556 3.84939 17.0583 3.50336 17.0583C3.03935 17.0583 2.59434 16.8739 2.26623 16.5458C1.93813 16.2177 1.7538 15.7727 1.7538 15.3087ZM3.50336 40.6774C3.15733 40.6774 2.81907 40.5748 2.53136 40.3825C2.24364 40.1903 2.0194 39.917 1.88698 39.5973C1.75456 39.2776 1.71991 38.9259 1.78742 38.5865C1.85492 38.2471 2.02155 37.9354 2.26623 37.6907C2.51091 37.446 2.82266 37.2794 3.16204 37.2119C3.50142 37.1443 3.8532 37.179 4.17289 37.3114C4.49258 37.4438 4.76583 37.6681 4.95807 37.9558C5.15032 38.2435 5.25293 38.5818 5.25293 38.9278C5.25293 39.3918 5.0686 39.8368 4.74049 40.1649C4.41238 40.493 3.96738 40.6774 3.50336 40.6774ZM25.3729 52.4869C25.0269 52.4869 24.6886 52.3843 24.4009 52.1921C24.1132 51.9998 23.8889 51.7266 23.7565 51.4069C23.6241 51.0872 23.5895 50.7354 23.657 50.396C23.7245 50.0567 23.8911 49.7449 24.1358 49.5002C24.3805 49.2556 24.6922 49.0889 25.0316 49.0214C25.371 48.9539 25.7227 48.9886 26.0424 49.121C26.3621 49.2534 26.6354 49.4776 26.8276 49.7654C27.0199 50.0531 27.1225 50.3913 27.1225 50.7374C27.1225 51.2014 26.9382 51.6464 26.61 51.9745C26.2819 52.3026 25.8369 52.4869 25.3729 52.4869ZM44.689 36.5519L37.3356 32.5856L36.5054 34.1252L43.8536 38.0898C43.7031 38.6383 43.7031 39.2173 43.8536 39.7658L27.9238 48.3615C27.4716 47.8757 26.8901 47.5291 26.2477 47.3624V40.24H24.4981V47.3624C23.8548 47.5286 23.2723 47.8752 22.8194 48.3615L6.88964 39.7658C7.04009 39.2173 7.04009 38.6383 6.88964 38.0898L14.2378 34.1252L13.4076 32.5856L6.05685 36.5519C5.60396 36.0657 5.02151 35.7191 4.37814 35.5529V18.6836C5.02151 18.5174 5.60396 18.1708 6.05685 17.6846L13.4103 21.6509L14.2404 20.1112L6.89227 16.1467C7.04272 15.5982 7.04272 15.0192 6.89227 14.4706L22.822 5.87504C23.2742 6.36083 23.8557 6.70742 24.4981 6.87404V13.9965H26.2477V6.87404C26.8911 6.70788 27.4735 6.36126 27.9264 5.87504L43.8562 14.4706C43.7057 15.0192 43.7057 15.5982 43.8562 16.1467L36.508 20.1112L37.3382 21.6509L44.6916 17.6846C45.1438 18.1704 45.7253 18.517 46.3677 18.6836V35.5529C45.7243 35.7191 45.1419 36.0657 44.689 36.5519ZM48.992 38.9278C48.992 39.2738 48.8894 39.6121 48.6972 39.8998C48.5049 40.1875 48.2317 40.4118 47.912 40.5442C47.5923 40.6766 47.2405 40.7113 46.9011 40.6437C46.5618 40.5762 46.25 40.4096 46.0053 40.1649C45.7607 39.9203 45.594 39.6085 45.5265 39.2691C45.459 38.9297 45.4937 38.578 45.6261 38.2583C45.7585 37.9386 45.9827 37.6653 46.2705 37.4731C46.5582 37.2808 46.8964 37.1782 47.2425 37.1782C47.7065 37.1782 48.1515 37.3626 48.4796 37.6907C48.8077 38.0188 48.992 38.4638 48.992 38.9278ZM47.2425 17.0583C46.8964 17.0583 46.5582 16.9556 46.2705 16.7634C45.9827 16.5712 45.7585 16.2979 45.6261 15.9782C45.4937 15.6585 45.459 15.3067 45.5265 14.9674C45.594 14.628 45.7607 14.3162 46.0053 14.0716C46.25 13.8269 46.5618 13.6602 46.9011 13.5927C47.2405 13.5252 47.5923 13.5599 47.912 13.6923C48.2317 13.8247 48.5049 14.049 48.6972 14.3367C48.8894 14.6244 48.992 14.9627 48.992 15.3087C48.992 15.7727 48.8077 16.2177 48.4796 16.5458C48.1515 16.8739 47.7065 17.0583 47.2425 17.0583Z"/>
</mask>
<path d="M50.7416 15.3087C50.7437 14.6059 50.5334 13.9188 50.1384 13.3376C49.7433 12.7563 49.1819 12.3079 48.5277 12.0511C47.8735 11.7943 47.157 11.741 46.472 11.8984C45.787 12.0557 45.1656 12.4162 44.689 12.9328L28.7592 4.33717C28.8311 4.06352 28.869 3.78205 28.872 3.49913C28.872 2.5711 28.5034 1.68108 27.8472 1.02487C27.191 0.368657 26.3009 0 25.3729 0C24.4449 0 23.5549 0.368657 22.8987 1.02487C22.2424 1.68108 21.8738 2.5711 21.8738 3.49913C21.8768 3.78205 21.9147 4.06352 21.9866 4.33717L6.05685 12.9328C5.68836 12.5342 5.23199 12.227 4.72399 12.0357C4.216 11.8444 3.67038 11.7743 3.13051 11.8308C2.59064 11.8873 2.07139 12.0689 1.61402 12.3613C1.15666 12.6537 0.773785 13.0487 0.495831 13.5149C0.217877 13.9812 0.0525029 14.5058 0.0128505 15.0472C-0.0268018 15.5886 0.0603606 16.1317 0.267411 16.6335C0.474462 17.1353 0.795693 17.5819 1.20558 17.9378C1.61546 18.2936 2.1027 18.549 2.62858 18.6836V35.5529C2.10222 35.6871 1.61443 35.9423 1.20403 36.2982C0.793628 36.6541 0.471928 37.1008 0.264517 37.6028C0.0571063 38.1049 -0.0302919 38.6484 0.00927388 39.1902C0.0488397 39.7319 0.214278 40.257 0.49243 40.7236C0.770581 41.1902 1.15377 41.5854 1.61152 41.8779C2.06928 42.1704 2.58896 42.352 3.12924 42.4083C3.66952 42.4646 4.21549 42.3941 4.72373 42.2024C5.23196 42.0106 5.68844 41.7029 6.05685 41.3037L21.9866 49.8993C21.9147 50.173 21.8768 50.4544 21.8738 50.7374C21.8738 51.6654 22.2424 52.5554 22.8987 53.2116C23.5549 53.8678 24.4449 54.2365 25.3729 54.2365C26.3009 54.2365 27.191 53.8678 27.8472 53.2116C28.5034 52.5554 28.872 51.6654 28.872 50.7374C28.869 50.4544 28.8311 50.173 28.7592 49.8993L44.689 41.3037C45.0575 41.7023 45.5138 42.0094 46.0218 42.2008C46.5298 42.3921 47.0754 42.4622 47.6153 42.4057C48.1552 42.3492 48.6744 42.1675 49.1318 41.8752C49.5892 41.5828 49.972 41.1878 50.25 40.7216C50.528 40.2553 50.6933 39.7306 50.733 39.1893C50.7726 38.6479 50.6855 38.1047 50.4784 37.603C50.2714 37.1012 49.9501 36.6546 49.5402 36.2987C49.1304 35.9428 48.6431 35.6875 48.1172 35.5529V18.6836C48.8662 18.4902 49.5299 18.0541 50.0048 17.4435C50.4796 16.8329 50.7387 16.0822 50.7416 15.3087ZM25.3729 1.74956C25.7189 1.74956 26.0572 1.85217 26.3449 2.04442C26.6326 2.23666 26.8569 2.50991 26.9893 2.8296C27.1217 3.14929 27.1564 3.50107 27.0889 3.84045C27.0214 4.17983 26.8547 4.49158 26.61 4.73626C26.3654 4.98094 26.0536 5.14757 25.7142 5.21508C25.3749 5.28258 25.0231 5.24794 24.7034 5.11552C24.3837 4.98309 24.1104 4.75885 23.9182 4.47113C23.726 4.18342 23.6234 3.84516 23.6234 3.49913C23.6234 3.03512 23.8077 2.59011 24.1358 2.262C24.4639 1.93389 24.9089 1.74956 25.3729 1.74956ZM1.7538 15.3087C1.7538 14.9627 1.85641 14.6244 2.04865 14.3367C2.2409 14.049 2.51414 13.8247 2.83383 13.6923C3.15352 13.5599 3.5053 13.5252 3.84469 13.5927C4.18407 13.6602 4.49581 13.8269 4.74049 14.0716C4.98517 14.3162 5.1518 14.628 5.21931 14.9674C5.28682 15.3067 5.25217 15.6585 5.11975 15.9782C4.98733 16.2979 4.76308 16.5712 4.47537 16.7634C4.18765 16.9556 3.84939 17.0583 3.50336 17.0583C3.03935 17.0583 2.59434 16.8739 2.26623 16.5458C1.93813 16.2177 1.7538 15.7727 1.7538 15.3087ZM3.50336 40.6774C3.15733 40.6774 2.81907 40.5748 2.53136 40.3825C2.24364 40.1903 2.0194 39.917 1.88698 39.5973C1.75456 39.2776 1.71991 38.9259 1.78742 38.5865C1.85492 38.2471 2.02155 37.9354 2.26623 37.6907C2.51091 37.446 2.82266 37.2794 3.16204 37.2119C3.50142 37.1443 3.8532 37.179 4.17289 37.3114C4.49258 37.4438 4.76583 37.6681 4.95807 37.9558C5.15032 38.2435 5.25293 38.5818 5.25293 38.9278C5.25293 39.3918 5.0686 39.8368 4.74049 40.1649C4.41238 40.493 3.96738 40.6774 3.50336 40.6774ZM25.3729 52.4869C25.0269 52.4869 24.6886 52.3843 24.4009 52.1921C24.1132 51.9998 23.8889 51.7266 23.7565 51.4069C23.6241 51.0872 23.5895 50.7354 23.657 50.396C23.7245 50.0567 23.8911 49.7449 24.1358 49.5002C24.3805 49.2556 24.6922 49.0889 25.0316 49.0214C25.371 48.9539 25.7227 48.9886 26.0424 49.121C26.3621 49.2534 26.6354 49.4776 26.8276 49.7654C27.0199 50.0531 27.1225 50.3913 27.1225 50.7374C27.1225 51.2014 26.9382 51.6464 26.61 51.9745C26.2819 52.3026 25.8369 52.4869 25.3729 52.4869ZM44.689 36.5519L37.3356 32.5856L36.5054 34.1252L43.8536 38.0898C43.7031 38.6383 43.7031 39.2173 43.8536 39.7658L27.9238 48.3615C27.4716 47.8757 26.8901 47.5291 26.2477 47.3624V40.24H24.4981V47.3624C23.8548 47.5286 23.2723 47.8752 22.8194 48.3615L6.88964 39.7658C7.04009 39.2173 7.04009 38.6383 6.88964 38.0898L14.2378 34.1252L13.4076 32.5856L6.05685 36.5519C5.60396 36.0657 5.02151 35.7191 4.37814 35.5529V18.6836C5.02151 18.5174 5.60396 18.1708 6.05685 17.6846L13.4103 21.6509L14.2404 20.1112L6.89227 16.1467C7.04272 15.5982 7.04272 15.0192 6.89227 14.4706L22.822 5.87504C23.2742 6.36083 23.8557 6.70742 24.4981 6.87404V13.9965H26.2477V6.87404C26.8911 6.70788 27.4735 6.36126 27.9264 5.87504L43.8562 14.4706C43.7057 15.0192 43.7057 15.5982 43.8562 16.1467L36.508 20.1112L37.3382 21.6509L44.6916 17.6846C45.1438 18.1704 45.7253 18.517 46.3677 18.6836V35.5529C45.7243 35.7191 45.1419 36.0657 44.689 36.5519ZM48.992 38.9278C48.992 39.2738 48.8894 39.6121 48.6972 39.8998C48.5049 40.1875 48.2317 40.4118 47.912 40.5442C47.5923 40.6766 47.2405 40.7113 46.9011 40.6437C46.5618 40.5762 46.25 40.4096 46.0053 40.1649C45.7607 39.9203 45.594 39.6085 45.5265 39.2691C45.459 38.9297 45.4937 38.578 45.6261 38.2583C45.7585 37.9386 45.9827 37.6653 46.2705 37.4731C46.5582 37.2808 46.8964 37.1782 47.2425 37.1782C47.7065 37.1782 48.1515 37.3626 48.4796 37.6907C48.8077 38.0188 48.992 38.4638 48.992 38.9278ZM47.2425 17.0583C46.8964 17.0583 46.5582 16.9556 46.2705 16.7634C45.9827 16.5712 45.7585 16.2979 45.6261 15.9782C45.4937 15.6585 45.459 15.3067 45.5265 14.9674C45.594 14.628 45.7607 14.3162 46.0053 14.0716C46.25 13.8269 46.5618 13.6602 46.9011 13.5927C47.2405 13.5252 47.5923 13.5599 47.912 13.6923C48.2317 13.8247 48.5049 14.049 48.6972 14.3367C48.8894 14.6244 48.992 14.9627 48.992 15.3087C48.992 15.7727 48.8077 16.2177 48.4796 16.5458C48.1515 16.8739 47.7065 17.0583 47.2425 17.0583Z" fill="#191E3B" stroke="white" stroke-width="0.2" mask="url(#path-1-inside-1_54_331)"/>
<path d="M18.3993 29.7551L18.3246 29.7127V29.7986V33.2417C18.3246 33.5301 18.5072 33.8404 18.8335 34.1403C19.1613 34.4415 19.6409 34.7388 20.2521 35.0013C21.4749 35.5267 23.2313 35.9161 25.3728 35.9161C27.5143 35.9161 29.2707 35.5267 30.4935 35.0013C31.1047 34.7388 31.5844 34.4415 31.9121 34.1403C32.2385 33.8404 32.4211 33.5301 32.4211 33.2417V29.7986V29.7127L32.3464 29.7551C30.2265 30.9595 27.8109 31.5441 25.3749 31.4422L25.3749 31.442L25.3707 31.4422C22.9347 31.5441 20.5191 30.9595 18.3993 29.7551ZM18.3993 23.6316L18.3246 23.5892V23.6751V27.1182C18.3246 27.4067 18.5072 27.717 18.8335 28.0168C19.1613 28.318 19.6409 28.6153 20.2521 28.8779C21.4749 29.4032 23.2313 29.7926 25.3728 29.7926C27.5143 29.7926 29.2707 29.4032 30.4935 28.8779C31.1047 28.6153 31.5844 28.318 31.9121 28.0168C32.2385 27.717 32.4211 27.4067 32.4211 27.1182V23.6751V23.5892L32.3464 23.6316C30.2265 24.836 27.8109 25.4206 25.3749 25.3187L25.3749 25.3185L25.3707 25.3187C22.9347 25.4206 20.5191 24.836 18.3993 23.6316ZM16.675 20.9948C16.675 19.7759 17.5945 18.6956 19.1514 17.9173C20.7064 17.1399 22.8852 16.6708 25.3728 16.6708C27.8604 16.6708 30.0392 17.1399 31.5942 17.9173C33.1511 18.6956 34.0706 19.7759 34.0706 20.9948V33.2417C34.0706 34.4606 33.1511 35.5409 31.5942 36.3192C30.0392 37.0966 27.8604 37.5656 25.3728 37.5656C22.8852 37.5656 20.7064 37.0966 19.1514 36.3192C17.5945 35.5409 16.675 34.4606 16.675 33.2417V20.9948ZM18.3246 20.9948C18.3246 21.2832 18.5072 21.5935 18.8335 21.8933C19.1613 22.1945 19.6409 22.4918 20.2521 22.7544C21.4749 23.2797 23.2313 23.6691 25.3728 23.6691C27.5143 23.6691 29.2707 23.2797 30.4935 22.7544C31.1047 22.4918 31.5844 22.1945 31.9121 21.8933C32.2385 21.5935 32.4211 21.2832 32.4211 20.9948C32.4211 20.7063 32.2385 20.396 31.9121 20.0962C31.5844 19.795 31.1047 19.4977 30.4935 19.2351C29.2707 18.7098 27.5143 18.3204 25.3728 18.3204C23.2313 18.3204 21.4749 18.7098 20.2521 19.2351C19.6409 19.4977 19.1613 19.795 18.8335 20.0962C18.5072 20.396 18.3246 20.7063 18.3246 20.9948Z" fill="#191E3B" stroke="white" stroke-width="0.1"/>
<path d="M28.9221 26.2935H30.5716V27.943H28.9221V26.2935Z" fill="#191E3B" stroke="white" stroke-width="0.1"/>
<path d="M28.9221 32.4169H30.5716V34.0665H28.9221V32.4169Z" fill="#191E3B" stroke="white" stroke-width="0.1"/>
</svg>
