<svg width="50" height="63" viewBox="0 0 50 63" fill="none" xmlns="http://www.w3.org/2000/svg">
<path d="M33.5227 30.7779H28.7163" stroke="#191E3B" stroke-width="1.7" stroke-miterlimit="10" stroke-linecap="round" stroke-linejoin="round"/>
<path d="M20.8528 30.7779H16.0464" stroke="#191E3B" stroke-width="1.7" stroke-miterlimit="10" stroke-linecap="round" stroke-linejoin="round"/>
<path d="M16.0464 38.403H33.5226" stroke="#191E3B" stroke-width="1.7" stroke-miterlimit="10" stroke-linecap="round" stroke-linejoin="round"/>
<path d="M15.1087 5.64988C17.3794 2.81528 20.8699 1 24.7844 1C31.6276 1 37.1751 6.54746 37.1751 13.3906C37.1751 21.7364 27.8897 33.4062 24.7844 33.4062C21.6792 33.4062 12.3938 21.7376 12.3938 13.3906C12.3938 12.0224 12.6156 10.7059 13.0252 9.4751" stroke="#191E3B" stroke-width="1.7" stroke-miterlimit="10" stroke-linecap="round" stroke-linejoin="round"/>
<path d="M24.7846 20.0625C28.4694 20.0625 31.4565 17.0754 31.4565 13.3907C31.4565 9.7059 28.4694 6.71881 24.7846 6.71881C21.0999 6.71881 18.1128 9.7059 18.1128 13.3907C18.1128 17.0754 21.0999 20.0625 24.7846 20.0625Z" stroke="#191E3B" stroke-width="1.7" stroke-miterlimit="10" stroke-linecap="round" stroke-linejoin="round"/>
<path d="M3.81546 43.1686L1.85241 44.4522C0.715864 45.1953 0.715864 46.8606 1.85241 47.6037L23.1054 61.4998C24.1255 62.1668 25.4436 62.1668 26.4637 61.4998L47.7167 47.6038C48.8532 46.8606 48.8532 45.1953 47.7167 44.4523L45.7535 43.1687" stroke="#191E3B" stroke-width="1.7" stroke-miterlimit="10" stroke-linecap="round" stroke-linejoin="round"/>
<path d="M14.6978 50.284L23.1053 55.7812C24.1254 56.4482 25.4436 56.4482 26.4637 55.7812L47.7166 41.885C48.8532 41.1418 48.8532 39.4765 47.7166 38.7335L45.7535 37.4499" stroke="#191E3B" stroke-width="1.7" stroke-miterlimit="10" stroke-linecap="round" stroke-linejoin="round"/>
<path d="M3.81546 37.4498L1.85241 38.7335C0.715864 39.4766 0.715864 41.1419 1.85241 41.885L11.0307 47.8861" stroke="#191E3B" stroke-width="1.7" stroke-miterlimit="10" stroke-linecap="round" stroke-linejoin="round"/>
<path d="M38.4919 26.983L33.7856 23.9059" stroke="#191E3B" stroke-width="1.7" stroke-miterlimit="10" stroke-linecap="round" stroke-linejoin="round"/>
<path d="M15.7832 23.906L1.85241 33.0147C0.715864 33.7578 0.715864 35.4231 1.85241 36.1662L23.1054 50.0623C24.1255 50.7293 25.4436 50.7293 26.4637 50.0623L47.7167 36.1662C48.8532 35.423 48.8532 33.7577 47.7167 33.0147L42.1713 29.3889" stroke="#191E3B" stroke-width="1.7" stroke-miterlimit="10" stroke-linecap="round" stroke-linejoin="round"/>
<path d="M18.2347 27.6663C16.3988 29.4036 15.2534 31.8632 15.2534 34.5903C15.2534 39.8543 19.5207 44.1216 24.7847 44.1216C30.0486 44.1216 34.3159 39.8543 34.3159 34.5903C34.3159 31.8631 33.1704 29.4035 31.3344 27.6661" stroke="#191E3B" stroke-width="1.7" stroke-miterlimit="10" stroke-linecap="round" stroke-linejoin="round"/>
<path d="M21.2272 31.1545C21.0624 32.2205 20.9719 33.3791 20.9719 34.5905C20.9719 39.8544 22.6788 44.1217 24.7845 44.1217C26.8902 44.1217 28.5969 39.8544 28.5969 34.5905C28.5969 33.3791 28.5065 32.2203 28.3417 31.1544" stroke="#191E3B" stroke-width="1.7" stroke-miterlimit="10" stroke-linecap="round" stroke-linejoin="round"/>
</svg>
