<svg width="155" height="33" viewBox="0 0 155 33" fill="none" xmlns="http://www.w3.org/2000/svg">
<path d="M94.6337 5.56045C94.0966 5.79041 93.5444 5.98449 92.9802 6.14206C93.6482 5.41279 94.1575 4.55471 94.4684 3.61571C94.5381 3.40524 94.4659 3.17485 94.2866 3.0372C94.1076 2.89944 93.859 2.88294 93.6619 2.99568C92.4636 3.68172 91.1708 4.17475 89.8153 4.46304C88.4498 3.17507 86.5952 2.44208 84.678 2.44208C80.631 2.44208 77.3385 5.62028 77.3385 9.5268C77.3385 9.83447 77.3586 10.1404 77.3986 10.4422C72.3766 10.0165 67.7078 7.6338 64.5018 3.83747C64.3875 3.70216 64.2115 3.62923 64.0313 3.64318C63.851 3.65681 63.689 3.75497 63.5979 3.90582C62.9476 4.9829 62.6039 6.21477 62.6039 7.46814C62.6039 9.17526 63.2352 10.795 64.3506 12.0606C64.0114 11.9472 63.6824 11.8055 63.3683 11.6372C63.1996 11.5466 62.9938 11.548 62.8263 11.6407C62.6587 11.7334 62.5536 11.904 62.5491 12.0904C62.5484 12.1218 62.5484 12.1532 62.5484 12.185C62.5484 14.7332 63.9691 17.0274 66.1412 18.2778C65.9546 18.2598 65.7681 18.2337 65.5828 18.1995C65.3918 18.1643 65.1954 18.2289 65.0666 18.3695C64.9375 18.5101 64.8949 18.7059 64.9543 18.8848C65.7583 21.3079 67.8283 23.0902 70.3307 23.6335C68.2552 24.8884 65.8817 25.5457 63.3901 25.5457C62.8702 25.5457 62.3473 25.5162 61.8356 25.4578C61.5814 25.4286 61.3383 25.5735 61.2517 25.8068C61.1652 26.0403 61.2569 26.3006 61.4732 26.4344C64.6741 28.4156 68.3752 29.4628 72.1762 29.4628C79.6486 29.4628 84.3232 26.0613 86.9287 23.2078C90.1778 19.6497 92.0412 14.9402 92.0412 10.2868C92.0412 10.0924 92.0381 9.89611 92.0319 9.70044C93.3138 8.76815 94.4174 7.63987 95.3155 6.34305C95.4519 6.1461 95.4372 5.8858 95.2791 5.7045C95.1213 5.52309 94.8583 5.46442 94.6337 5.56045Z" fill="white"/>
<path d="M139.533 3.97229C143.663 3.97229 144.153 3.98755 145.785 4.06133C149.976 4.24957 151.934 6.21214 152.125 10.3179C152.199 11.9269 152.213 12.4102 152.213 16.4854C152.213 20.5619 152.198 21.044 152.125 22.653C151.932 26.7549 149.98 28.7213 145.785 28.9095C144.153 28.9833 143.666 28.9986 139.533 28.9986C135.404 28.9986 134.914 28.9833 133.284 28.9095C129.082 28.72 127.134 26.7485 126.944 22.6517C126.869 21.0427 126.853 20.5607 126.853 16.4842C126.853 12.4089 126.87 11.9269 126.944 10.3166C127.136 6.21214 129.088 4.2483 133.284 4.06005C134.915 3.98755 135.404 3.97229 139.533 3.97229ZM139.533 1.22113C135.333 1.22113 134.807 1.23894 133.157 1.31271C127.54 1.56709 124.419 4.64259 124.161 10.1907C124.085 11.82 124.067 12.339 124.067 16.4842C124.067 20.6293 124.085 21.1496 124.16 22.7776C124.417 28.3206 127.534 31.4012 133.156 31.6556C134.807 31.7294 135.333 31.7472 139.533 31.7472C143.734 31.7472 144.261 31.7294 145.911 31.6556C151.523 31.4012 154.652 28.3257 154.906 22.7776C154.982 21.1496 155 20.6293 155 16.4842C155 12.339 154.982 11.82 154.907 10.192C154.655 4.65404 151.534 1.56836 145.912 1.31398C144.261 1.23894 143.734 1.22113 139.533 1.22113V1.22113ZM139.533 8.64659C135.147 8.64659 131.591 12.1558 131.591 16.4842C131.591 20.8125 135.147 24.323 139.533 24.323C143.92 24.323 147.476 20.8138 147.476 16.4842C147.476 12.1558 143.92 8.64659 139.533 8.64659ZM139.533 21.5718C136.686 21.5718 134.378 19.2951 134.378 16.4842C134.378 13.6745 136.686 11.3965 139.533 11.3965C142.381 11.3965 144.689 13.6745 144.689 16.4842C144.689 19.2951 142.381 21.5718 139.533 21.5718ZM147.79 6.50595C146.764 6.50595 145.933 7.32634 145.933 8.33752C145.933 9.34869 146.764 10.1691 147.79 10.1691C148.815 10.1691 149.645 9.34869 149.645 8.33752C149.645 7.32634 148.815 6.50595 147.79 6.50595Z" fill="white"/>
<path d="M32.5611 16.2804C32.5611 7.29361 25.2674 0 16.2805 0C7.29368 0 0 7.29361 0 16.2804C0 24.1601 5.60051 30.7211 13.0244 32.2352V21.1645H9.76832V16.2804H13.0244V12.2103C13.0244 9.06817 15.5805 6.51215 18.7226 6.51215H22.7928V11.3963H19.5366C18.6412 11.3963 17.9086 12.1289 17.9086 13.0243V16.2804H22.7928V21.1645H17.9086V32.4794C26.1303 31.6653 32.5611 24.7299 32.5611 16.2804Z" fill="white"/>
</svg>
