<svg width="36" height="30" viewBox="0 0 36 30" fill="none" xmlns="http://www.w3.org/2000/svg">
<path d="M10.7491 14.6596V14.7096H10.7991H33.7558C34.9658 14.7096 35.9503 15.693 35.95 16.9019V24.4018C35.95 25.6095 34.9658 26.5922 33.7558 26.5922H33.7557L32.9314 26.5933L32.8815 26.5933V26.6433V28.278C32.8815 28.8253 32.4359 29.2706 31.8881 29.2706H27.3188C26.7712 29.2706 26.3254 28.8252 26.3254 28.278V26.6504V26.6003L26.2753 26.6004L21.1499 26.6062H21.1499H21.1491C20.7861 26.6062 20.4916 26.3121 20.491 25.9491C20.4908 25.5856 20.7851 25.2908 21.1486 25.2906L33.7552 25.2766C34.2399 25.2766 34.6339 24.8844 34.6339 24.4018V16.9019C34.6339 16.4185 34.2401 16.0252 33.7558 16.0252H2.24425C1.76023 16.0252 1.36615 16.4185 1.36615 16.9019V24.4018C1.36615 24.8844 1.76034 25.2766 2.24425 25.2766H14.8369C15.2004 25.2766 15.4952 25.5712 15.4952 25.9344C15.4952 26.2976 15.2004 26.5922 14.8369 26.5922H9.7227H9.6727V26.6422V28.278C9.6727 28.8253 9.22784 29.2706 8.68119 29.2706H4.11002C3.56218 29.2706 3.11658 28.8253 3.11658 28.278V26.6422V26.5922H3.06658H2.24425C1.03444 26.5922 0.05 25.6095 0.05 24.4018V16.9019C0.05 15.693 1.03447 14.7096 2.24425 14.7096H2.99654H3.04654V14.6596V13.7232C3.04654 12.2664 4.23395 11.081 5.69343 11.081H6.19084H6.24084V11.031V1.93015C6.24084 1.56694 6.5354 1.27235 6.89892 1.27235C7.26243 1.27235 7.55699 1.56694 7.55699 1.93015V11.031V11.081H7.60699H8.1044C9.56247 11.081 10.7491 12.2664 10.7491 13.7232V14.6596ZM8.30573 27.9542H8.35573V27.9042V26.6422V26.5922H8.30573H4.48355H4.43355V26.6422V27.9042V27.9542H4.48355H8.30573ZM9.38267 14.7096H9.43267V14.6596V13.7232C9.43267 12.9916 8.83673 12.3966 8.1044 12.3966H5.69343C4.95981 12.3966 4.36297 12.9915 4.36297 13.7232V14.6596V14.7096H4.41297H9.38267ZM31.5145 27.9542H31.5645V27.9042V26.6446V26.5946L31.5145 26.5946L27.6926 26.599L27.6426 26.5991V26.649V27.9042V27.9542H27.6926H31.5145Z" fill="#191E3B" stroke="white" stroke-width="0.1"/>
<path d="M18.2295 21.5783H18.2795V21.5283V19.7732V19.7232H18.2295H5.64042H5.59042V19.7732V21.5283V21.5783H5.64042H18.2295ZM5.3924 18.4076H18.4753C19.0932 18.4076 19.5956 18.9091 19.5959 19.5252C19.5959 19.5252 19.5959 19.5252 19.5959 19.5252V21.7765C19.5959 22.3926 19.0933 22.8941 18.4753 22.8941H5.3924C4.7759 22.8941 4.274 22.3927 4.274 21.7765V19.5252C4.274 18.9093 4.77591 18.4076 5.3924 18.4076Z" fill="#191E3B" stroke="white" stroke-width="0.1"/>
<path d="M22.407 20.6518V20.6518C22.407 21.1629 22.8234 21.5783 23.3351 21.5783C23.8476 21.5783 24.2649 21.163 24.2649 20.6518C24.2649 20.1396 23.8477 19.7234 23.3351 19.7234C22.8233 19.7234 22.4073 20.1397 22.407 20.6518ZM25.5813 20.6518C25.5813 21.8881 24.5738 22.8941 23.3351 22.8941C22.0976 22.8941 21.0909 21.8881 21.0909 20.6518C21.0909 19.4143 22.0977 18.4076 23.3351 18.4076C24.5737 18.4076 25.5813 19.4144 25.5813 20.6518Z" fill="#191E3B" stroke="white" stroke-width="0.1"/>
<path d="M28.9581 18.4076C30.1967 18.4076 31.2042 19.4144 31.2042 20.6518C31.2042 21.8881 30.1967 22.8941 28.9581 22.8941C27.7205 22.8941 26.7138 21.8881 26.7138 20.6518C26.7138 19.4143 27.7206 18.4076 28.9581 18.4076ZM28.9581 19.7234C28.4465 19.7234 28.0302 20.1397 28.0302 20.6518C28.0302 21.1629 28.4466 21.5783 28.9581 21.5783C29.4705 21.5783 29.8881 21.163 29.8881 20.6518C29.8881 20.1396 29.4706 19.7234 28.9581 19.7234Z" fill="#191E3B" stroke="white" stroke-width="0.1"/>
<path d="M17.7395 10.7157C17.7395 10.3525 18.034 10.0579 18.3975 10.0579H18.4077C18.7709 10.0579 19.0658 10.3525 19.0658 10.7157C19.0658 11.0792 18.7709 11.3738 18.4077 11.3738H18.3975C18.034 11.3738 17.7395 11.0792 17.7395 10.7157Z" fill="#191E3B" stroke="white" stroke-width="0.1"/>
<path d="M20.8934 8.98568L20.8934 8.98569C21.0218 9.11407 21.1901 9.17814 21.3585 9.17814C21.527 9.17814 21.6957 9.11381 21.8241 8.98542C22.0809 8.72835 22.0808 8.31178 21.8238 8.05501L20.8934 8.98568ZM20.8934 8.98568C19.5195 7.6132 17.2837 7.6132 15.9098 8.98568C15.6528 9.24246 15.2362 9.24223 14.9791 8.9854C14.7223 8.72833 14.7224 8.31177 14.9794 8.05501M20.8934 8.98568L14.9794 8.05501M14.9794 8.05501C16.8663 6.17029 19.9367 6.17002 21.8238 8.05501L14.9794 8.05501Z" fill="#191E3B" stroke="white" stroke-width="0.1"/>
<path d="M25.6158 4.34421L25.6158 4.34418C21.6376 0.372057 15.166 0.372045 11.1897 4.34419C10.9327 4.60098 10.5158 4.60073 10.259 4.34367L10.259 4.34366C10.002 4.08662 10.0022 3.67032 10.2593 3.41352L10.2239 3.37815L10.2593 3.41352C14.7483 -1.07112 22.0548 -1.07114 26.5457 3.41326L26.5811 3.37788L26.5457 3.41327C26.803 3.67006 26.8033 4.08664 26.5465 4.34367C26.4178 4.47235 26.2494 4.53666 26.0809 4.53666C25.9123 4.53666 25.7442 4.47259 25.6158 4.34421Z" fill="#191E3B" stroke="white" stroke-width="0.1"/>
<path d="M13.1247 6.47302C13.4013 6.7496 13.8495 6.74988 14.1261 6.47329C16.528 4.07414 20.4345 4.07414 22.8345 6.47329C22.9726 6.61145 23.1539 6.68039 23.3352 6.68039C23.5162 6.68039 23.6975 6.61145 23.8359 6.47329M13.1247 6.47302L13.1601 6.43768C13.16 6.43768 13.16 6.43767 13.16 6.43766M13.1247 6.47302L13.16 6.43766M13.1247 6.47302C12.8484 6.19644 12.8484 5.74847 13.125 5.47188L23.8005 5.50751C20.868 2.57609 16.095 2.57608 13.1603 5.50726C12.9033 5.76432 12.9033 6.18061 13.16 6.43766M13.16 6.43766C13.4171 6.69475 13.8337 6.69497 14.0907 6.43794L14.0908 6.43792C16.5122 4.01927 20.4503 4.01925 22.8698 6.43793L22.8698 6.43794C22.9982 6.56631 23.1666 6.63039 23.3352 6.63039C23.5035 6.63039 23.6719 6.56632 23.8006 6.4379M23.8006 6.4379C23.8005 6.43792 23.8005 6.43793 23.8005 6.43794L23.8359 6.47329M23.8006 6.4379L23.8359 6.47329M23.8006 6.4379C24.0576 6.18085 24.0576 5.76457 23.8005 5.50752L23.8359 6.47329" fill="#191E3B" stroke="white" stroke-width="0.1"/>
<path d="M17.9872 25.2897H17.999C18.3628 25.2897 18.6576 25.5844 18.6576 25.9478C18.6576 26.3113 18.3628 26.6062 17.999 26.6062H17.9872C17.6234 26.6062 17.3286 26.3113 17.3286 25.9478C17.3286 25.5844 17.6234 25.2897 17.9872 25.2897Z" fill="#191E3B" stroke="white" stroke-width="0.1"/>
</svg>
