<svg width="34" height="35" viewBox="0 0 34 35" fill="none" xmlns="http://www.w3.org/2000/svg">
<g filter="url(#filter0_d_14_399)">
<path d="M29.5593 13.2191H23.3898V4.84621C23.3906 4.76294 23.3673 4.68123 23.3227 4.61088C23.2781 4.54053 23.2142 4.48453 23.1386 4.4496L13.8844 0.0428211C13.8252 0.0146291 13.7605 0 13.6949 0C13.6294 0 13.5646 0.0146291 13.5054 0.0428211L4.2512 4.4496C4.17561 4.48453 4.11171 4.54053 4.06715 4.61088C4.0226 4.68123 3.99929 4.76294 4.00002 4.84621V18.0665C4.00002 18.1834 4.04644 18.2955 4.12909 18.3781C4.21173 18.4608 4.32382 18.5072 4.44069 18.5072H12.981L12.4214 19.6309C12.4197 19.6327 12.4184 19.6348 12.4177 19.6371C12.4169 19.6393 12.4167 19.6418 12.417 19.6442C12.389 19.7019 12.3739 19.7651 12.3729 19.8292V23.3547C12.3739 23.705 12.5136 24.0406 12.7613 24.2883C13.009 24.536 13.3446 24.6757 13.6949 24.6767H14.1797C14.2808 25.1748 14.551 25.6226 14.9446 25.9443C15.3381 26.2659 15.8307 26.4416 16.339 26.4416C16.8472 26.4416 17.3399 26.2659 17.7334 25.9443C18.1269 25.6226 18.3972 25.1748 18.4983 24.6767H22.9932C23.0944 25.1748 23.3646 25.6226 23.7581 25.9443C24.1517 26.2659 24.6443 26.4416 25.1525 26.4416C25.6608 26.4416 26.1534 26.2659 26.547 25.9443C26.9405 25.6226 27.2107 25.1748 27.3119 24.6767H28.678C29.0283 24.6757 29.3639 24.536 29.6116 24.2883C29.8593 24.0406 29.999 23.705 30 23.3547V13.6598C30 13.5429 29.9536 13.4308 29.8709 13.3482C29.7883 13.2655 29.6762 13.2191 29.5593 13.2191ZM6.64408 17.6259H4.88137V5.12384L13.6949 0.928583L22.5085 5.12384V13.2191H20.7458V9.69366H21.1864C21.3033 9.69366 21.4154 9.64723 21.4981 9.56459C21.5807 9.48195 21.6271 9.36986 21.6271 9.25299V7.49027C21.6271 7.3734 21.5807 7.26131 21.4981 7.17867C21.4154 7.09602 21.3033 7.0496 21.1864 7.0496H6.2034C6.08653 7.0496 5.97444 7.09602 5.8918 7.17867C5.80916 7.26131 5.76273 7.3734 5.76273 7.49027V9.25299C5.76273 9.36986 5.80916 9.48195 5.8918 9.56459C5.97444 9.64723 6.08653 9.69366 6.2034 9.69366H6.64408V17.6259ZM6.64408 7.93095H20.7458V8.81231H6.64408V7.93095ZM7.52544 17.6259V9.69366H19.8644V13.2191H18.9831C18.8662 13.2191 18.7541 13.2655 18.6715 13.3482C18.5888 13.4308 18.5424 13.5429 18.5424 13.6598V15.8631H14.5763C14.4948 15.8628 14.4148 15.8853 14.3455 15.9282C14.2761 15.971 14.2202 16.0325 14.1841 16.1055L13.4217 17.6259H7.52544ZM16.7797 16.7445V19.3886H13.5275L14.8495 16.7445H16.7797ZM14.1797 23.7953H13.6949C13.5781 23.7953 13.466 23.7489 13.3833 23.6663C13.3007 23.5836 13.2542 23.4715 13.2542 23.3547V22.914H14.5895C14.3869 23.1723 14.2466 23.4739 14.1797 23.7953ZM16.339 25.5581C16.0775 25.5581 15.8219 25.4805 15.6045 25.3353C15.3871 25.19 15.2177 24.9835 15.1176 24.7419C15.0175 24.5004 14.9914 24.2346 15.0424 23.9781C15.0934 23.7217 15.2193 23.4861 15.4042 23.3012C15.5891 23.1163 15.8246 22.9904 16.0811 22.9394C16.3375 22.8884 16.6033 22.9146 16.8449 23.0146C17.0865 23.1147 17.293 23.2841 17.4382 23.5015C17.5835 23.719 17.661 23.9746 17.661 24.236C17.66 24.5863 17.5204 24.922 17.2727 25.1697C17.025 25.4174 16.6893 25.557 16.339 25.5581ZM13.2542 22.0326V20.2699H17.2203C17.3372 20.2699 17.4493 20.2235 17.532 20.1409C17.6146 20.0582 17.661 19.9461 17.661 19.8292V16.7445H18.5424V22.0326H13.2542ZM22.9932 23.7953H18.4983C18.4314 23.4739 18.2911 23.1723 18.0885 22.914H23.4031C23.2004 23.1723 23.0602 23.4739 22.9932 23.7953ZM25.1525 25.5581C24.8911 25.5581 24.6355 25.4805 24.4181 25.3353C24.2007 25.19 24.0312 24.9835 23.9311 24.7419C23.8311 24.5004 23.8049 24.2346 23.8559 23.9781C23.9069 23.7217 24.0328 23.4861 24.2177 23.3012C24.4026 23.1163 24.6382 22.9904 24.8946 22.9394C25.1511 22.8884 25.4169 22.9146 25.6585 23.0146C25.9 23.1147 26.1065 23.2841 26.2518 23.5015C26.397 23.719 26.4746 23.9746 26.4746 24.236C26.4735 24.5863 26.3339 24.922 26.0862 25.1697C25.8385 25.4174 25.5028 25.557 25.1525 25.5581ZM29.1186 23.3547C29.1186 23.4715 29.0722 23.5836 28.9896 23.6663C28.9069 23.7489 28.7948 23.7953 28.678 23.7953H27.3119C27.2449 23.4739 27.1047 23.1723 26.902 22.914H29.1186V23.3547ZM29.1186 22.0326H19.4237V21.1513H29.1186V22.0326ZM23.1563 18.4411C23.2208 18.4806 23.2943 18.503 23.3699 18.5061C23.4455 18.5091 23.5206 18.4929 23.5881 18.4587L24.2712 18.1194L24.9542 18.4587C25.0158 18.4897 25.0836 18.5063 25.1525 18.5072C25.235 18.5072 25.3158 18.4843 25.3861 18.4411C25.4496 18.4014 25.502 18.3462 25.5382 18.2807C25.5744 18.2151 25.5934 18.1414 25.5932 18.0665V16.7445H26.4746V20.2699H22.0678V16.7445H22.9492V18.0665C22.949 18.1414 22.9679 18.2151 23.0042 18.2807C23.0404 18.3462 23.0928 18.4014 23.1563 18.4411ZM23.8305 17.3526V16.7445H24.7119V17.3526L24.4695 17.2337C24.4083 17.2018 24.3402 17.1852 24.2712 17.1852C24.2022 17.1852 24.1341 17.2018 24.0729 17.2337L23.8305 17.3526ZM29.1186 20.2699H27.3559V16.3038C27.3559 16.187 27.3095 16.0749 27.2269 15.9922C27.1442 15.9096 27.0321 15.8631 26.9153 15.8631H21.6271C21.5102 15.8631 21.3982 15.9096 21.3155 15.9922C21.2329 16.0749 21.1864 16.187 21.1864 16.3038V20.2699H19.4237V14.1004H29.1186V20.2699Z" fill="#191E3B"/>
<path d="M13.6949 5.72757C14.0436 5.72757 14.3844 5.62419 14.6742 5.4305C14.9641 5.23681 15.19 4.96151 15.3235 4.63942C15.4569 4.31733 15.4918 3.9629 15.4238 3.62097C15.3558 3.27904 15.1879 2.96495 14.9414 2.71844C14.6948 2.47192 14.3808 2.30403 14.0388 2.23602C13.6969 2.168 13.3425 2.20291 13.0204 2.33633C12.6983 2.46974 12.423 2.69567 12.2293 2.98555C12.0356 3.27543 11.9322 3.61623 11.9322 3.96486C11.9322 4.43236 12.1179 4.88071 12.4485 5.21128C12.7791 5.54186 13.2274 5.72757 13.6949 5.72757ZM13.6949 3.0835C13.8692 3.0835 14.0396 3.1352 14.1846 3.23204C14.3295 3.32888 14.4425 3.46653 14.5092 3.62758C14.5759 3.78863 14.5934 3.96584 14.5594 4.1368C14.5253 4.30777 14.4414 4.46481 14.3181 4.58807C14.1949 4.71133 14.0378 4.79527 13.8669 4.82928C13.6959 4.86329 13.5187 4.84583 13.3577 4.77913C13.1966 4.71242 13.059 4.59945 12.9621 4.45451C12.8653 4.30958 12.8136 4.13918 12.8136 3.96486C12.8136 3.73111 12.9064 3.50693 13.0717 3.34165C13.237 3.17636 13.4612 3.0835 13.6949 3.0835Z" fill="#191E3B"/>
</g>
<defs>
<filter id="filter0_d_14_399" x="0" y="0" width="34" height="34.4417" filterUnits="userSpaceOnUse" color-interpolation-filters="sRGB">
<feFlood flood-opacity="0" result="BackgroundImageFix"/>
<feColorMatrix in="SourceAlpha" type="matrix" values="0 0 0 0 0 0 0 0 0 0 0 0 0 0 0 0 0 0 127 0" result="hardAlpha"/>
<feOffset dy="4"/>
<feGaussianBlur stdDeviation="2"/>
<feComposite in2="hardAlpha" operator="out"/>
<feColorMatrix type="matrix" values="0 0 0 0 0 0 0 0 0 0 0 0 0 0 0 0 0 0 0.25 0"/>
<feBlend mode="normal" in2="BackgroundImageFix" result="effect1_dropShadow_14_399"/>
<feBlend mode="normal" in="SourceGraphic" in2="effect1_dropShadow_14_399" result="shape"/>
</filter>
</defs>
</svg>
