<svg width="30" height="30" viewBox="0 0 30 30" fill="none" xmlns="http://www.w3.org/2000/svg">
<path d="M28.1766 14.4856H1.82344C1.34646 14.4856 0.889023 14.2962 0.55175 13.9589C0.214478 13.6216 0.025 13.1642 0.025 12.6872C0.025 12.2102 0.214478 11.7528 0.55175 11.4155C0.889023 11.0782 1.34646 10.8888 1.82344 10.8888H28.1766C28.6535 10.8888 29.111 11.0782 29.4483 11.4155C29.7855 11.7528 29.975 12.2102 29.975 12.6872C29.975 13.1642 29.7855 13.6216 29.4483 13.9589C29.111 14.2962 28.6535 14.4856 28.1766 14.4856ZM1.82344 11.9926C1.63922 11.9926 1.46255 12.0658 1.33229 12.1961C1.20203 12.3263 1.12885 12.503 1.12885 12.6872C1.12885 12.8714 1.20203 13.0481 1.33229 13.1784C1.46255 13.3086 1.63922 13.3818 1.82344 13.3818H28.1766C28.3608 13.3818 28.5375 13.3086 28.6677 13.1784C28.798 13.0481 28.8712 12.8714 28.8712 12.6872C28.8712 12.503 28.798 12.3263 28.6677 12.1961C28.5375 12.0658 28.3608 11.9926 28.1766 11.9926H1.82344Z" fill="#191E3B" stroke="white" stroke-width="0.05"/>
<path d="M2.82538 28.8462V28.8712H2.85038H4.83932H4.86432V28.8462V13.9338C4.86432 13.7874 4.92247 13.647 5.02598 13.5435C5.12948 13.44 5.26987 13.3819 5.41624 13.3819C5.56262 13.3819 5.70301 13.44 5.80651 13.5435C5.91002 13.647 5.96817 13.7874 5.96817 13.9338V29.4231C5.96817 29.5695 5.91002 29.7099 5.80651 29.8134C5.70301 29.9169 5.56262 29.975 5.41624 29.975H2.27346C2.12708 29.975 1.98669 29.9169 1.88319 29.8134C1.77968 29.7099 1.72153 29.5695 1.72153 29.4231V13.9338C1.72153 13.7874 1.77968 13.647 1.88319 13.5435C1.98669 13.44 2.12708 13.3819 2.27346 13.3819C2.41984 13.3819 2.56022 13.44 2.66372 13.5435C2.76723 13.647 2.82538 13.7874 2.82538 13.9338V28.8462Z" fill="#191E3B" stroke="white" stroke-width="0.05"/>
<path d="M25.1357 28.8462V28.8712H25.1607H27.1514H27.1764V28.8462V13.9338C27.1764 13.7874 27.2346 13.647 27.3381 13.5435C27.4416 13.44 27.582 13.3819 27.7284 13.3819C27.8747 13.3819 28.0151 13.44 28.1186 13.5435C28.2221 13.647 28.2803 13.7874 28.2803 13.9338V29.4231C28.2803 29.5695 28.2221 29.7099 28.1186 29.8134C28.0151 29.9169 27.8747 29.975 27.7284 29.975H24.5838C24.4374 29.975 24.297 29.9169 24.1935 29.8134C24.09 29.7099 24.0318 29.5695 24.0318 29.4231V13.9338C24.0318 13.7874 24.09 13.647 24.1935 13.5435C24.297 13.44 24.4374 13.3819 24.5838 13.3819C24.7301 13.3819 24.8705 13.44 24.974 13.5435C25.0775 13.647 25.1357 13.7874 25.1357 13.9338V28.8462Z" fill="#191E3B" stroke="white" stroke-width="0.05"/>
<path d="M6.58295 7.75421V7.77921H6.60795H17.1902H17.2152V7.75421V1.15385V1.12885H17.1902H6.60795H6.58295V1.15385V7.75421ZM17.7671 8.88305H6.03102C5.88465 8.88305 5.74426 8.8249 5.64076 8.7214C5.53725 8.61789 5.4791 8.47751 5.4791 8.33113V0.576923C5.4791 0.430544 5.53725 0.29016 5.64076 0.186655C5.74426 0.083149 5.88465 0.025 6.03102 0.025H17.7671C17.9135 0.025 18.0538 0.083149 18.1574 0.186655C18.2609 0.29016 18.319 0.430544 18.319 0.576923V8.33113C18.319 8.47751 18.2609 8.61789 18.1574 8.7214C18.0538 8.8249 17.9135 8.88305 17.7671 8.88305Z" fill="#191E3B" stroke="white" stroke-width="0.05"/>
<path d="M10.5618 11.9927C10.4154 11.9927 10.275 11.9346 10.1715 11.8311C10.068 11.7276 10.0099 11.5872 10.0099 11.4408V8.3312C10.0099 8.18482 10.068 8.04443 10.1715 7.94093C10.275 7.83742 10.4154 7.77927 10.5618 7.77927C10.7082 7.77927 10.8485 7.83742 10.9521 7.94093C11.0556 8.04443 11.1137 8.18482 11.1137 8.3312V11.4408C11.1137 11.5872 11.0556 11.7276 10.9521 11.8311C10.8485 11.9346 10.7082 11.9927 10.5618 11.9927Z" fill="#191E3B" stroke="white" stroke-width="0.05"/>
<path d="M13.2365 11.9927C13.0901 11.9927 12.9497 11.9346 12.8462 11.8311C12.7427 11.7276 12.6845 11.5872 12.6845 11.4408V8.3312C12.6845 8.18482 12.7427 8.04443 12.8462 7.94093C12.9497 7.83742 13.0901 7.77927 13.2365 7.77927C13.3828 7.77927 13.5232 7.83742 13.6267 7.94093C13.7302 8.04443 13.7884 8.18482 13.7884 8.3312V11.4408C13.7884 11.5872 13.7302 11.7276 13.6267 11.8311C13.5232 11.9346 13.3828 11.9927 13.2365 11.9927Z" fill="#191E3B" stroke="white" stroke-width="0.05"/>
<path d="M24.5837 24.6745H16.8389C16.6925 24.6745 16.5521 24.6164 16.4486 24.5128C16.3451 24.4093 16.287 24.269 16.287 24.1226C16.287 23.9762 16.3451 23.8358 16.4486 23.7323C16.5521 23.6288 16.6925 23.5707 16.8389 23.5707H24.5837C24.7301 23.5707 24.8705 23.6288 24.974 23.7323C25.0775 23.8358 25.1356 23.9762 25.1356 24.1226C25.1356 24.269 25.0775 24.4093 24.974 24.5128C24.8705 24.6164 24.7301 24.6745 24.5837 24.6745Z" fill="#191E3B" stroke="white" stroke-width="0.05"/>
<path d="M16.8389 24.6745C16.6925 24.6745 16.5521 24.6164 16.4486 24.5129C16.3451 24.4094 16.287 24.269 16.287 24.1226V13.9338C16.287 13.7874 16.3451 13.647 16.4486 13.5435C16.5521 13.44 16.6925 13.3819 16.8389 13.3819C16.9853 13.3819 17.1256 13.44 17.2292 13.5435C17.3327 13.647 17.3908 13.7874 17.3908 13.9338V24.1226C17.3908 24.269 17.3327 24.4094 17.2292 24.5129C17.1256 24.6164 16.9853 24.6745 16.8389 24.6745Z" fill="#191E3B" stroke="white" stroke-width="0.05"/>
<path d="M24.5837 19.5904H16.8389C16.6925 19.5904 16.5521 19.5322 16.4486 19.4287C16.3451 19.3252 16.287 19.1849 16.287 19.0385C16.287 18.8921 16.3451 18.7517 16.4486 18.6482C16.5521 18.5447 16.6925 18.4865 16.8389 18.4865H24.5837C24.7301 18.4865 24.8705 18.5447 24.974 18.6482C25.0775 18.7517 25.1356 18.8921 25.1356 19.0385C25.1356 19.1849 25.0775 19.3252 24.974 19.4287C24.8705 19.5322 24.7301 19.5904 24.5837 19.5904Z" fill="#191E3B" stroke="white" stroke-width="0.05"/>
<path d="M21.5229 17.0382H19.9003C19.7539 17.0382 19.6135 16.9801 19.51 16.8766C19.4065 16.773 19.3484 16.6327 19.3484 16.4863C19.3484 16.3399 19.4065 16.1995 19.51 16.096C19.6135 15.9925 19.7539 15.9344 19.9003 15.9344H21.5229C21.6693 15.9344 21.8096 15.9925 21.9132 16.096C22.0167 16.1995 22.0748 16.3399 22.0748 16.4863C22.0748 16.6327 22.0167 16.773 21.9132 16.8766C21.8096 16.9801 21.6693 17.0382 21.5229 17.0382Z" fill="#191E3B" stroke="white" stroke-width="0.05"/>
<path d="M21.5229 22.1351H19.9003C19.7539 22.1351 19.6135 22.0769 19.51 21.9734C19.4065 21.8699 19.3484 21.7295 19.3484 21.5831C19.3484 21.4368 19.4065 21.2964 19.51 21.1929C19.6135 21.0894 19.7539 21.0312 19.9003 21.0312H21.5229C21.6693 21.0312 21.8096 21.0894 21.9132 21.1929C22.0167 21.2964 22.0748 21.4368 22.0748 21.5831C22.0748 21.7295 22.0167 21.8699 21.9132 21.9734C21.8096 22.0769 21.6693 22.1351 21.5229 22.1351Z" fill="#191E3B" stroke="white" stroke-width="0.05"/>
<path d="M17.7671 7.17389H6.03102C5.88465 7.17389 5.74426 7.11574 5.64076 7.01224C5.53725 6.90873 5.4791 6.76835 5.4791 6.62197C5.4791 6.47559 5.53725 6.3352 5.64076 6.2317C5.74426 6.12819 5.88465 6.07004 6.03102 6.07004H17.7671C17.9135 6.07004 18.0538 6.12819 18.1574 6.2317C18.2609 6.3352 18.319 6.47559 18.319 6.62197C18.319 6.76835 18.2609 6.90873 18.1574 7.01224C18.0538 7.11574 17.9135 7.17389 17.7671 7.17389Z" fill="#191E3B" stroke="white" stroke-width="0.05"/>
<path d="M21.6553 10.8638V10.8888H21.6803H26.2416C26.4061 10.8888 26.5637 10.8235 26.68 10.7072C26.7963 10.5909 26.8616 10.4332 26.8616 10.2688C26.8616 10.1044 26.7963 9.94671 26.68 9.83045C26.5637 9.71418 26.4061 9.64887 26.2416 9.64887H21.6803H21.6553V9.67387V10.8638ZM26.2416 11.9926H21.1034C20.957 11.9926 20.8166 11.9345 20.7131 11.831C20.6096 11.7275 20.5515 11.5871 20.5515 11.4407V9.09694C20.5515 8.95056 20.6096 8.81018 20.7131 8.70667C20.8166 8.60317 20.957 8.54502 21.1034 8.54502H26.2416C26.6988 8.54502 27.1373 8.72663 27.4605 9.04991C27.7838 9.37318 27.9654 9.81164 27.9654 10.2688C27.9654 10.726 27.7838 11.1645 27.4605 11.4877C27.1373 11.811 26.6988 11.9926 26.2416 11.9926Z" fill="#191E3B" stroke="white" stroke-width="0.05"/>
<path d="M28.125 8.54508H28.15V8.52008V7.33018V7.30518H28.125H23.5637C23.3993 7.30518 23.2416 7.37049 23.1254 7.48676C23.0091 7.60302 22.9438 7.76071 22.9438 7.92513C22.9438 8.08955 23.0091 8.24724 23.1254 8.3635C23.2416 8.47977 23.3993 8.54508 23.5637 8.54508H28.125ZM28.702 9.64893H23.5637C23.1066 9.64893 22.6681 9.46731 22.3448 9.14404C22.0216 8.82076 21.8399 8.38231 21.8399 7.92513C21.8399 7.46795 22.0216 7.02949 22.3448 6.70622C22.6681 6.38295 23.1066 6.20133 23.5637 6.20133H28.702C28.8483 6.20133 28.9887 6.25948 29.0922 6.36299C29.1957 6.46649 29.2539 6.60687 29.2539 6.75325V9.097C29.2539 9.24338 29.1957 9.38377 29.0922 9.48727C28.9887 9.59078 28.8483 9.64893 28.702 9.64893Z" fill="#191E3B" stroke="white" stroke-width="0.05"/>
<path d="M21.6553 6.17627V6.20127H21.6803H26.2416C26.4061 6.20127 26.5637 6.13595 26.68 6.01969C26.7963 5.90343 26.8616 5.74574 26.8616 5.58132C26.8616 5.4169 26.7963 5.25921 26.68 5.14295C26.5637 5.02668 26.4061 4.96137 26.2416 4.96137H21.6803H21.6553V4.98637V6.17627ZM26.2416 7.30512H21.1034C20.957 7.30512 20.8166 7.24697 20.7131 7.14346C20.6096 7.03996 20.5515 6.89957 20.5515 6.75319V4.40944C20.5515 4.26306 20.6096 4.12268 20.7131 4.01917C20.8166 3.91567 20.957 3.85752 21.1034 3.85752H26.2416C26.6988 3.85752 27.1373 4.03913 27.4605 4.36241C27.7838 4.68568 27.9654 5.12414 27.9654 5.58132C27.9654 6.0385 27.7838 6.47695 27.4605 6.80023C27.1373 7.1235 26.6988 7.30512 26.2416 7.30512Z" fill="#191E3B" stroke="white" stroke-width="0.05"/>
</svg>
