<svg width="31" height="30" viewBox="0 0 31 30" fill="none" xmlns="http://www.w3.org/2000/svg">
<path d="M14.6787 0.817825C14.9384 0.164193 15.8635 0.164192 16.1232 0.817825L19.7112 9.84774C19.8221 10.1269 20.0839 10.3171 20.3837 10.3364L30.0804 10.9583C30.7823 11.0033 31.0682 11.8832 30.5268 12.3322L23.0475 18.5349C22.8163 18.7266 22.7163 19.0344 22.7907 19.3255L25.1956 28.7398C25.3697 29.4212 24.6212 29.965 24.0269 29.5889L15.8166 24.3924C15.5628 24.2318 15.2391 24.2318 14.9853 24.3924L6.77496 29.5889C6.18066 29.965 5.43219 29.4212 5.60628 28.7398L8.01124 19.3255C8.08559 19.0344 7.98557 18.7266 7.75435 18.5349L0.275122 12.3322C-0.266265 11.8832 0.0196238 11.0033 0.721521 10.9583L10.4182 10.3364C10.718 10.3171 10.9798 10.1269 11.0907 9.84774L14.6787 0.817825Z" fill="#F2CC00"/>
</svg>
