<svg width="36" height="36" viewBox="0 0 36 36" fill="none" xmlns="http://www.w3.org/2000/svg">
<path d="M35.782 13.6177L29.8128 8.9962V3.93761C29.8128 3.78842 29.7535 3.64535 29.648 3.53986C29.5425 3.43437 29.3994 3.3751 29.2502 3.3751H24.7502C24.601 3.3751 24.458 3.43437 24.3525 3.53986C24.247 3.64535 24.1877 3.78842 24.1877 3.93761V4.6413L18.3444 0.117643C18.2459 0.0413795 18.1248 0 18.0002 0C17.8756 0 17.7545 0.0413795 17.6559 0.117643L0.218302 13.6177C0.158913 13.6637 0.109324 13.7211 0.0724593 13.7865C0.0355944 13.8519 0.0121996 13.924 0.0036544 13.9986C-0.00489081 14.0732 0.00158646 14.1488 0.0227043 14.2208C0.0438222 14.2929 0.0791532 14.36 0.126614 14.4182L1.81413 16.4871C1.90683 16.6008 2.04028 16.6738 2.18603 16.6905C2.33178 16.7072 2.47829 16.6663 2.59432 16.5765L3.93758 15.5364V31.5003C3.93758 31.6495 3.99684 31.7926 4.10233 31.898C4.20782 32.0035 4.3509 32.0628 4.50008 32.0628H11.8126C11.9618 32.0628 12.1049 32.0035 12.2104 31.898C12.3159 31.7926 12.3751 31.6495 12.3751 31.5003C12.3751 31.3511 12.3159 31.208 12.2104 31.1025C12.1049 30.997 11.9618 30.9378 11.8126 30.9378H5.06259V14.6657L12.1569 9.17339C12.2749 9.08209 12.3518 8.94765 12.3707 8.79965C12.3896 8.65165 12.3489 8.5022 12.2576 8.3842C12.1663 8.26619 12.0318 8.18929 11.8838 8.17041C11.7358 8.15152 11.5864 8.19221 11.4684 8.28351L2.3395 15.3508L1.363 14.1544L18.0002 1.27415L34.6373 14.1555L33.6614 15.3508L18.3444 3.49267C18.2459 3.4164 18.1248 3.37502 18.0002 3.37502C17.8756 3.37502 17.7545 3.4164 17.6559 3.49267L13.1559 6.97625C13.0975 7.02146 13.0485 7.07773 13.0118 7.14186C12.9751 7.20599 12.9514 7.27671 12.9421 7.34999C12.9327 7.42328 12.9379 7.49768 12.9573 7.56897C12.9767 7.64025 13.01 7.70701 13.0552 7.76544C13.1004 7.82387 13.1567 7.87283 13.2208 7.90951C13.2849 7.94619 13.3557 7.96989 13.4289 7.97924C13.5022 7.98859 13.5766 7.98341 13.6479 7.964C13.7192 7.9446 13.786 7.91134 13.8444 7.86613L18.0002 4.64917L30.9378 14.6657V30.9378H24.1877C24.0385 30.9378 23.8955 30.997 23.79 31.1025C23.6845 31.208 23.6252 31.3511 23.6252 31.5003C23.6252 31.6495 23.6845 31.7926 23.79 31.898C23.8955 32.0035 24.0385 32.0628 24.1877 32.0628H31.5003C31.6495 32.0628 31.7925 32.0035 31.898 31.898C32.0035 31.7926 32.0628 31.6495 32.0628 31.5003V15.5364L33.406 16.5765C33.522 16.6661 33.6684 16.7069 33.814 16.6902C33.9596 16.6735 34.093 16.6006 34.1857 16.4871L35.8732 14.4182C35.9207 14.36 35.956 14.293 35.9772 14.2209C35.9984 14.1489 36.0049 14.0733 35.9964 13.9987C35.9879 13.9241 35.9646 13.852 35.9277 13.7866C35.8909 13.7211 35.8414 13.6637 35.782 13.6177ZM25.3127 4.50011H28.6877V8.12545L25.3127 5.51262V4.50011Z" fill="#191E3B"/>
<path d="M11.8126 28.1252H13.5001C13.6493 28.1252 13.7924 28.0659 13.8979 27.9604C14.0034 27.8549 14.0626 27.7119 14.0626 27.5627C14.0626 27.4135 14.0034 27.2704 13.8979 27.1649C13.7924 27.0594 13.6493 27.0002 13.5001 27.0002H11.8126C11.6634 27.0002 11.5204 27.0594 11.4149 27.1649C11.3094 27.2704 11.2501 27.4135 11.2501 27.5627C11.2501 27.7119 11.3094 27.8549 11.4149 27.9604C11.5204 28.0659 11.6634 28.1252 11.8126 28.1252Z" fill="#191E3B"/>
<path d="M10.6876 25.3127H13.5001C13.6493 25.3127 13.7924 25.2534 13.8979 25.1479C14.0034 25.0424 14.0626 24.8994 14.0626 24.7502C14.0626 24.601 14.0034 24.4579 13.8979 24.3524C13.7924 24.2469 13.6493 24.1877 13.5001 24.1877H10.6876C10.5384 24.1877 10.3954 24.2469 10.2899 24.3524C10.1844 24.4579 10.1251 24.601 10.1251 24.7502C10.1251 24.8994 10.1844 25.0424 10.2899 25.1479C10.3954 25.2534 10.5384 25.3127 10.6876 25.3127Z" fill="#191E3B"/>
<path d="M13.5001 21.3751H11.8126C11.6634 21.3751 11.5204 21.4344 11.4149 21.5399C11.3094 21.6454 11.2501 21.7884 11.2501 21.9376C11.2501 22.0868 11.3094 22.2299 11.4149 22.3354C11.5204 22.4409 11.6634 22.5001 11.8126 22.5001H13.5001C13.6493 22.5001 13.7924 22.4409 13.8979 22.3354C14.0034 22.2299 14.0626 22.0868 14.0626 21.9376C14.0626 21.7884 14.0034 21.6454 13.8979 21.5399C13.7924 21.4344 13.6493 21.3751 13.5001 21.3751Z" fill="#191E3B"/>
<path d="M10.6876 19.6876H13.5001C13.6493 19.6876 13.7924 19.6284 13.8979 19.5229C14.0034 19.4174 14.0626 19.2743 14.0626 19.1251C14.0626 18.9759 14.0034 18.8329 13.8979 18.7274C13.7924 18.6219 13.6493 18.5626 13.5001 18.5626H10.6876C10.5384 18.5626 10.3954 18.6219 10.2899 18.7274C10.1844 18.8329 10.1251 18.9759 10.1251 19.1251C10.1251 19.2743 10.1844 19.4174 10.2899 19.5229C10.3954 19.6284 10.5384 19.6876 10.6876 19.6876Z" fill="#191E3B"/>
<path d="M13.5001 15.7501H11.8126C11.6634 15.7501 11.5204 15.8094 11.4149 15.9149C11.3094 16.0204 11.2501 16.1634 11.2501 16.3126C11.2501 16.4618 11.3094 16.6049 11.4149 16.7104C11.5204 16.8159 11.6634 16.8751 11.8126 16.8751H13.5001C13.6493 16.8751 13.7924 16.8159 13.8979 16.7104C14.0034 16.6049 14.0626 16.4618 14.0626 16.3126C14.0626 16.1634 14.0034 16.0204 13.8979 15.9149C13.7924 15.8094 13.6493 15.7501 13.5001 15.7501Z" fill="#191E3B"/>
<path d="M24.7501 27.5627C24.7501 27.4135 24.6909 27.2704 24.5854 27.1649C24.4799 27.0594 24.3368 27.0002 24.1876 27.0002H22.5001C22.3509 27.0002 22.2079 27.0594 22.1024 27.1649C21.9969 27.2704 21.9376 27.4135 21.9376 27.5627C21.9376 27.7119 21.9969 27.8549 22.1024 27.9604C22.2079 28.0659 22.3509 28.1252 22.5001 28.1252H24.1876C24.3368 28.1252 24.4799 28.0659 24.5854 27.9604C24.6909 27.8549 24.7501 27.7119 24.7501 27.5627Z" fill="#191E3B"/>
<path d="M22.5001 25.3127H25.3126C25.4618 25.3127 25.6049 25.2534 25.7104 25.1479C25.8159 25.0424 25.8751 24.8994 25.8751 24.7502C25.8751 24.601 25.8159 24.4579 25.7104 24.3524C25.6049 24.2469 25.4618 24.1877 25.3126 24.1877H22.5001C22.3509 24.1877 22.2079 24.2469 22.1024 24.3524C21.9969 24.4579 21.9376 24.601 21.9376 24.7502C21.9376 24.8994 21.9969 25.0424 22.1024 25.1479C22.2079 25.2534 22.3509 25.3127 22.5001 25.3127Z" fill="#191E3B"/>
<path d="M22.5001 22.5001H24.1876C24.3368 22.5001 24.4799 22.4409 24.5854 22.3354C24.6909 22.2299 24.7501 22.0868 24.7501 21.9376C24.7501 21.7884 24.6909 21.6454 24.5854 21.5399C24.4799 21.4344 24.3368 21.3751 24.1876 21.3751H22.5001C22.3509 21.3751 22.2079 21.4344 22.1024 21.5399C21.9969 21.6454 21.9376 21.7884 21.9376 21.9376C21.9376 22.0868 21.9969 22.2299 22.1024 22.3354C22.2079 22.4409 22.3509 22.5001 22.5001 22.5001Z" fill="#191E3B"/>
<path d="M22.5001 19.6876H25.3126C25.4618 19.6876 25.6049 19.6284 25.7104 19.5229C25.8159 19.4174 25.8751 19.2743 25.8751 19.1251C25.8751 18.9759 25.8159 18.8329 25.7104 18.7274C25.6049 18.6219 25.4618 18.5626 25.3126 18.5626H22.5001C22.3509 18.5626 22.2079 18.6219 22.1024 18.7274C21.9969 18.8329 21.9376 18.9759 21.9376 19.1251C21.9376 19.2743 21.9969 19.4174 22.1024 19.5229C22.2079 19.6284 22.3509 19.6876 22.5001 19.6876Z" fill="#191E3B"/>
<path d="M13.5001 12.9376H10.6876C10.5384 12.9376 10.3954 12.9968 10.2899 13.1023C10.1844 13.2078 10.1251 13.3509 10.1251 13.5001C10.1251 13.6493 10.1844 13.7923 10.2899 13.8978C10.3954 14.0033 10.5384 14.0626 10.6876 14.0626H13.5001C13.6493 14.0626 13.7924 14.0033 13.8979 13.8978C14.0034 13.7923 14.0626 13.6493 14.0626 13.5001C14.0626 13.3509 14.0034 13.2078 13.8979 13.1023C13.7924 12.9968 13.6493 12.9376 13.5001 12.9376Z" fill="#191E3B"/>
<path d="M22.5001 14.0626H25.3126C25.4618 14.0626 25.6049 14.0033 25.7104 13.8978C25.8159 13.7923 25.8751 13.6493 25.8751 13.5001C25.8751 13.3509 25.8159 13.2078 25.7104 13.1023C25.6049 12.9968 25.4618 12.9376 25.3126 12.9376H22.5001C22.3509 12.9376 22.2079 12.9968 22.1024 13.1023C21.9969 13.2078 21.9376 13.3509 21.9376 13.5001C21.9376 13.6493 21.9969 13.7923 22.1024 13.8978C22.2079 14.0033 22.3509 14.0626 22.5001 14.0626Z" fill="#191E3B"/>
<path d="M22.5001 16.8751H24.1876C24.3368 16.8751 24.4799 16.8159 24.5854 16.7104C24.6909 16.6049 24.7501 16.4618 24.7501 16.3126C24.7501 16.1634 24.6909 16.0204 24.5854 15.9149C24.4799 15.8094 24.3368 15.7501 24.1876 15.7501H22.5001C22.3509 15.7501 22.2079 15.8094 22.1024 15.9149C21.9969 16.0204 21.9376 16.1634 21.9376 16.3126C21.9376 16.4618 21.9969 16.6049 22.1024 16.7104C22.2079 16.8159 22.3509 16.8751 22.5001 16.8751Z" fill="#191E3B"/>
<path d="M18.5626 29.3301V19.1251C18.5626 18.9759 18.5034 18.8329 18.3979 18.7274C18.2924 18.6219 18.1493 18.5626 18.0001 18.5626C17.851 18.5626 17.7079 18.6219 17.6024 18.7274C17.4969 18.8329 17.4376 18.9759 17.4376 19.1251V29.3301C16.9074 29.467 16.4453 29.7926 16.1379 30.2458C15.8306 30.6991 15.6991 31.2489 15.7681 31.7921C15.8371 32.3354 16.1018 32.8349 16.5128 33.1969C16.9237 33.5589 17.4525 33.7587 18.0001 33.7587C18.5478 33.7587 19.0766 33.5589 19.4875 33.1969C19.8984 32.8349 20.1632 32.3354 20.2322 31.7921C20.3012 31.2489 20.1697 30.6991 19.8624 30.2458C19.555 29.7926 19.0929 29.467 18.5626 29.3301ZM18.0001 32.6252C17.7776 32.6252 17.5601 32.5592 17.3751 32.4356C17.1901 32.312 17.0459 32.1363 16.9608 31.9307C16.8756 31.7252 16.8533 31.499 16.8968 31.2807C16.9402 31.0625 17.0473 30.862 17.2046 30.7047C17.362 30.5474 17.5624 30.4402 17.7807 30.3968C17.9989 30.3534 18.2251 30.3757 18.4307 30.4608C18.6362 30.546 18.8119 30.6902 18.9356 30.8752C19.0592 31.0602 19.1251 31.2777 19.1251 31.5002C19.1251 31.7986 19.0066 32.0847 18.7956 32.2957C18.5847 32.5067 18.2985 32.6252 18.0001 32.6252Z" fill="#191E3B"/>
<path d="M20.8127 27.9902V13.5001C20.8127 12.7542 20.5164 12.0388 19.9889 11.5113C19.4615 10.9839 18.7461 10.6876 18.0002 10.6876C17.2542 10.6876 16.5389 10.9839 16.0114 11.5113C15.484 12.0388 15.1876 12.7542 15.1876 13.5001V27.9896C14.5197 28.524 14.0178 29.2377 13.7409 30.047C13.464 30.8564 13.4236 31.728 13.6243 32.5595C13.825 33.391 14.2586 34.1482 14.8742 34.7421C15.4898 35.3361 16.262 35.7422 17.1002 35.913C17.3941 35.9705 17.6928 35.9997 17.9923 36.0002C18.9246 36.0011 19.8342 35.7124 20.5953 35.1741C21.3565 34.6357 21.9316 33.8741 22.2413 32.9948C22.5509 32.1154 22.5798 31.1615 22.3238 30.265C22.0679 29.3685 21.5399 28.5736 20.8127 27.9902ZM20.145 34.1063C19.7547 34.4249 19.2988 34.6531 18.8099 34.7746C18.321 34.896 17.8113 34.9077 17.3173 34.8088C16.6711 34.6753 16.0781 34.3552 15.6119 33.8883C15.1457 33.4213 14.8265 32.8279 14.694 32.1814C14.5615 31.535 14.6214 30.8639 14.8663 30.2511C15.1112 29.6384 15.5303 29.1108 16.0719 28.7338C16.1464 28.6819 16.2071 28.6127 16.2491 28.5322C16.291 28.4517 16.3128 28.3622 16.3127 28.2714V13.5001C16.3127 13.0525 16.4904 12.6233 16.8069 12.3068C17.1234 11.9904 17.5526 11.8126 18.0002 11.8126C18.4477 11.8126 18.8769 11.9904 19.1934 12.3068C19.5099 12.6233 19.6877 13.0525 19.6877 13.5001V28.2714C19.6878 28.3619 19.7097 28.451 19.7516 28.5313C19.7936 28.6115 19.8542 28.6804 19.9284 28.7321C20.3559 29.0299 20.7085 29.4226 20.9589 29.8795C21.2092 30.3363 21.3504 30.8449 21.3714 31.3654C21.3923 31.8859 21.2925 32.4042 21.0798 32.8797C20.867 33.3553 20.5471 33.7751 20.145 34.1063Z" fill="#191E3B"/>
</svg>
