<svg width="25" height="25" viewBox="0 0 25 25" fill="none" xmlns="http://www.w3.org/2000/svg">
<path d="M24.8029 7.56256L12.7196 0.0625562C12.6536 0.0216656 12.5776 0 12.5 0C12.4224 0 12.3464 0.0216656 12.2804 0.0625562L0.197083 7.56256C0.136804 7.59994 0.0870649 7.65208 0.052576 7.71406C0.0180871 7.77604 -9.55096e-06 7.8458 3.78161e-09 7.91672V24.5834C3.78161e-09 24.6939 0.0438987 24.7999 0.122039 24.878C0.200179 24.9562 0.30616 25.0001 0.416667 25.0001H24.5833C24.6938 25.0001 24.7998 24.9562 24.878 24.878C24.9561 24.7999 25 24.6939 25 24.5834V7.91672C25 7.8458 24.9819 7.77604 24.9474 7.71406C24.9129 7.65208 24.8632 7.59994 24.8029 7.56256ZM2.5 10.0001V9.16672H22.5V10.0001H2.5ZM21.6667 10.8334V24.1667H3.33333V10.8334H21.6667ZM24.1667 24.1667H22.5V10.8334H22.9167C23.0272 10.8334 23.1332 10.7895 23.2113 10.7114C23.2894 10.6332 23.3333 10.5272 23.3333 10.4167V8.75006C23.3333 8.63955 23.2894 8.53357 23.2113 8.45543C23.1332 8.37729 23.0272 8.33339 22.9167 8.33339H2.08333C1.97283 8.33339 1.86685 8.37729 1.78871 8.45543C1.71057 8.53357 1.66667 8.63955 1.66667 8.75006V10.4167C1.66667 10.5272 1.71057 10.6332 1.78871 10.7114C1.86685 10.7895 1.97283 10.8334 2.08333 10.8334H2.5V24.1667H0.833333V8.14881L12.5 0.907139L24.1667 8.14881V24.1667Z" fill="#191E3B"/>
<path d="M9.16666 4.58335V6.25002C9.16666 6.36053 9.21055 6.46651 9.2887 6.54465C9.36684 6.62279 9.47282 6.66669 9.58332 6.66669H15.4167C15.5272 6.66669 15.6331 6.62279 15.7113 6.54465C15.7894 6.46651 15.8333 6.36053 15.8333 6.25002V4.58335C15.8333 4.47285 15.7894 4.36687 15.7113 4.28873C15.6331 4.21059 15.5272 4.16669 15.4167 4.16669H9.58332C9.47282 4.16669 9.36684 4.21059 9.2887 4.28873C9.21055 4.36687 9.16666 4.47285 9.16666 4.58335ZM9.99999 5.00002H15V5.83335H9.99999V5.00002Z" fill="#191E3B"/>
<path d="M11.25 2.50006H13.75V3.33339H11.25V2.50006Z" fill="#191E3B"/>
<path d="M4.28876 18.4555L4.87792 19.0447L6.00584 17.9167H6.66667V18.3334H7.50001V17.9167H8.39251C8.42969 18.0587 8.48575 18.1951 8.55917 18.3222L7.92292 18.9584L7.64292 18.6784L7.05376 19.2676L7.33376 19.5476L6.88126 20.0001H5.41667V20.8334H6.66667V22.0834H7.50001V20.5597L7.92292 20.1367L8.23209 20.4463L8.82126 19.8572L8.51209 19.5476L9.13959 18.9201C9.27749 19.004 9.42701 19.0672 9.58334 19.1076V20.0001H9.16667V20.8334H9.58334V21.4942L8.45542 22.6222L9.04459 23.2113L10 22.2559L10.9554 23.2113L11.5446 22.6222L10.4167 21.4942V20.8334H10.8333V20.0001H10.4167V19.1076C10.5587 19.0704 10.695 19.0143 10.8221 18.9409L11.4583 19.5772L11.1788 19.8572L11.7679 20.4463L12.0475 20.1663L12.5 20.6188V22.0834H13.3333V20.8334H14.5833V20.0001H13.0596L12.6367 19.5772L12.9463 19.2676L12.3571 18.6784L12.0475 18.988L11.42 18.3605C11.5039 18.2226 11.5671 18.073 11.6075 17.9167H12.5V18.3334H13.3333V17.9167H13.9942L15.1221 19.0447L15.7113 18.4555L14.7558 17.5001L15.7113 16.5447L15.1221 15.9555L13.9942 17.0834H13.3333V16.6667H12.5V17.0834H11.6075C11.5703 16.9414 11.5143 16.8051 11.4408 16.678L12.0771 16.0417L12.3571 16.3217L12.9463 15.7326L12.6663 15.4526L13.1188 15.0001H14.5833V14.1667H13.3333V12.9167H12.5V14.4405L12.0771 14.8634L11.7679 14.5538L11.1788 15.143L11.4879 15.4526L10.8604 16.0801C10.7225 15.9961 10.573 15.9329 10.4167 15.8926V15.0001H10.8333V14.1667H10.4167V13.5059L11.5446 12.378L10.9554 11.7888L10 12.7442L9.04459 11.7888L8.45542 12.378L9.58334 13.5059V14.1667H9.16667V15.0001H9.58334V15.8926C9.44136 15.9298 9.30501 15.9858 9.17792 16.0592L8.54167 15.423L8.82126 15.143L8.23209 14.5538L7.95251 14.8338L7.50001 14.3813V12.9167H6.66667V14.1667H5.41667V15.0001H6.94042L7.36334 15.423L7.05376 15.7326L7.64292 16.3217L7.95251 16.0122L8.58001 16.6397C8.49611 16.7776 8.43293 16.9271 8.39251 17.0834H7.50001V16.6667H6.66667V17.0834H6.00584L4.87792 15.9555L4.28876 16.5447L5.24417 17.5001L4.28876 18.4555ZM10.8333 17.5001C10.8333 17.6649 10.7845 17.826 10.6929 17.963C10.6013 18.1001 10.4712 18.2069 10.3189 18.27C10.1666 18.333 9.99908 18.3495 9.83743 18.3174C9.67578 18.2852 9.5273 18.2059 9.41075 18.0893C9.29421 17.9728 9.21484 17.8243 9.18269 17.6626C9.15053 17.501 9.16704 17.3334 9.23011 17.1812C9.29318 17.0289 9.39999 16.8987 9.53703 16.8072C9.67407 16.7156 9.83519 16.6667 10 16.6667C10.221 16.6667 10.433 16.7545 10.5893 16.9108C10.7455 17.0671 10.8333 17.2791 10.8333 17.5001Z" fill="#191E3B"/>
<path d="M17.9167 23.7501C18.3534 23.7513 18.7795 23.6148 19.1343 23.3601C19.4891 23.1053 19.7545 22.7452 19.8929 22.3309C20.0313 21.9167 20.0357 21.4693 19.9053 21.0524C19.7749 20.6356 19.5165 20.2704 19.1667 20.0088V12.9167C19.1667 12.5852 19.035 12.2673 18.8005 12.0329C18.5661 11.7984 18.2482 11.6667 17.9167 11.6667C17.5851 11.6667 17.2672 11.7984 17.0328 12.0329C16.7984 12.2673 16.6667 12.5852 16.6667 12.9167V20.0088C16.3169 20.2704 16.0584 20.6356 15.928 21.0524C15.7976 21.4693 15.802 21.9167 15.9404 22.3309C16.0788 22.7452 16.3443 23.1053 16.699 23.3601C17.0538 23.6148 17.4799 23.7513 17.9167 23.7501ZM17.2917 20.5913C17.3549 20.5548 17.4074 20.5024 17.444 20.4392C17.4805 20.376 17.4998 20.3043 17.5 20.2313V12.9167C17.5 12.8062 17.5439 12.7003 17.622 12.6221C17.7002 12.544 17.8062 12.5001 17.9167 12.5001C18.0272 12.5001 18.1331 12.544 18.2113 12.6221C18.2894 12.7003 18.3333 12.8062 18.3333 12.9167V20.2313C18.3335 20.3043 18.3528 20.376 18.3894 20.4392C18.4259 20.5024 18.4784 20.5548 18.5417 20.5913C18.7316 20.6994 18.8894 20.8558 18.9992 21.0447C19.109 21.2336 19.1668 21.4483 19.1667 21.6667C19.1667 21.9983 19.035 22.3162 18.8005 22.5506C18.5661 22.7851 18.2482 22.9167 17.9167 22.9167C17.5851 22.9167 17.2672 22.7851 17.0328 22.5506C16.7984 22.3162 16.6667 21.9983 16.6667 21.6667C16.6666 21.4483 16.7243 21.2336 16.8341 21.0447C16.9439 20.8558 17.1018 20.6994 17.2917 20.5913Z" fill="#191E3B"/>
<path d="M17.5 21.2501H18.3333V22.0834H17.5V21.2501Z" fill="#191E3B"/>
<path d="M20 12.9167H20.8333V13.75H20V12.9167Z" fill="#191E3B"/>
<path d="M20 14.5834H20.8333V15.4167H20V14.5834Z" fill="#191E3B"/>
<path d="M20 16.2501H20.8333V17.0834H20V16.2501Z" fill="#191E3B"/>
<path d="M20 17.9167H20.8333V18.7501H20V17.9167Z" fill="#191E3B"/>
</svg>
