<svg width="37" height="31" viewBox="0 0 37 31" fill="none" xmlns="http://www.w3.org/2000/svg">
<path d="M6.00583 26.827C6.00583 25.8653 6.78826 25.0828 7.75 25.0828C8.71173 25.0828 9.49416 25.8653 9.49416 26.827C9.49416 27.7886 8.71173 28.5711 7.75 28.5711C6.78826 28.5711 6.00583 27.7886 6.00583 26.827ZM7.10956 26.827C7.10956 27.1801 7.39685 27.4674 7.75 27.4674C8.10314 27.4674 8.39043 27.1802 8.39043 26.827C8.39043 26.4738 8.10314 26.1865 7.75 26.1865C7.39685 26.1865 7.10956 26.4738 7.10956 26.827Z" fill="#191E3B" stroke="white" stroke-width="0.0885714"/>
<path d="M25.0827 26.827C25.0827 25.8653 25.8652 25.0828 26.8269 25.0828C27.7886 25.0828 28.5711 25.8653 28.5711 26.827C28.5711 27.7886 27.7886 28.5711 26.8269 28.5711C25.8652 28.5711 25.0827 27.7886 25.0827 26.827ZM26.1865 26.827C26.1865 27.1801 26.4738 27.4674 26.8269 27.4674C27.18 27.4674 27.4673 27.1802 27.4673 26.827C27.4673 26.4738 27.18 26.1865 26.8269 26.1865C26.4738 26.1865 26.1865 26.4738 26.1865 26.827Z" fill="#191E3B" stroke="white" stroke-width="0.0885714"/>
<mask id="path-3-inside-1_56_456" fill="white">
<path d="M36.9616 18.271C36.9616 17.8919 36.844 17.5292 36.6216 17.2221L24.6861 0.739592C24.3507 0.27649 23.8092 0 23.2375 0H8.94232C7.95612 0 7.15387 0.802326 7.15387 1.78845V4.87178C6.46004 5.11795 5.96157 5.78051 5.96157 6.55772C5.96157 7.33492 6.46004 7.99749 7.15387 8.24366V8.94232C7.15387 9.92844 7.95612 10.7308 8.94232 10.7308H16.6923V13.1154H13.5376C11.9467 13.1154 10.5165 13.9993 9.80507 15.4222L8.57386 17.8846H4.69383C3.80668 17.8846 2.97209 18.2755 2.40395 18.9572L0.967209 20.6812C0.343483 21.4297 0 22.3785 0 23.3527V26.827C0 27.8131 0.802254 28.6154 1.78845 28.6154H3.98037C4.65131 30.024 6.0887 31 7.75002 31C9.41134 31 10.8486 30.0239 11.5197 28.6154H17.8846V29.8077H16.6923V31H20.2692V29.8077H19.0769V28.6154H23.0573C23.7282 30.024 25.1656 31 26.827 31C28.4883 31 29.9255 30.0239 30.5966 28.6154H36.9616V18.271ZM35.7693 18.271V22.564L33.3847 19.1859V14.7848L35.6559 17.9214C35.7301 18.0237 35.7693 18.1447 35.7693 18.271ZM26.2308 9.05118V4.90564L28.6154 8.19875V12.4294L26.2308 9.05118ZM29.8077 9.84528L32.1923 13.1382V17.4967L29.8077 14.1185V9.84528ZM23.7204 1.4389L25.0385 3.25919V7.36214L22.6539 3.98398V1.19237H23.2376C23.4281 1.1923 23.6086 1.28441 23.7204 1.4389ZM19.0769 27.4231H17.8846V9.53847H19.0769V27.4231ZM16.6923 17.8846H12.573L13.0044 17.022C13.1061 16.8186 13.3104 16.6923 13.5377 16.6923H16.6924V17.8846H16.6923ZM12.2045 19.0769H16.6923V25.0385H12.2045V19.0769ZM16.6923 3.57697V4.76927H15.5V1.1923H17.8846V3.5769L16.6923 3.57697ZM11.9231 4.76927V1.1923H14.3077V4.7692H11.9231V4.76927ZM19.0769 1.1923H21.4615V3.5769H19.0769V1.1923ZM8.94232 1.1923H10.7308V4.7692H8.34617V1.78845C8.34617 1.45977 8.61363 1.1923 8.94232 1.1923ZM7.75002 5.96157H16.6923V7.15387H7.75002C7.42133 7.15387 7.15387 6.8864 7.15387 6.55772C7.15387 6.22903 7.42133 5.96157 7.75002 5.96157ZM8.94232 9.53847C8.61363 9.53847 8.34617 9.271 8.34617 8.94232V8.34617H16.6923V9.53847H8.94232ZM4.69383 19.0769H9.31085L10.8716 15.9555C11.3798 14.939 12.4014 14.3077 13.5377 14.3077H16.6924V15.5H13.5377C12.856 15.5 12.243 15.8788 11.9381 16.4887L11.0124 18.3401V24.229C10.2471 23.27 9.06952 22.6538 7.75009 22.6538C6.08877 22.6538 4.65153 23.6299 3.98044 25.0384H1.1923V23.8461H3.5769C4.23434 23.8461 4.7692 23.3112 4.7692 22.6538C4.7692 21.4903 3.93143 20.5194 2.82749 20.3111L3.31976 19.7204C3.66071 19.3115 4.1615 19.0769 4.69383 19.0769ZM2.3846 21.4616C3.04204 21.4616 3.5769 21.9965 3.5769 22.6539H1.2764C1.38137 22.2195 1.58299 21.8107 1.86952 21.4616H2.3846ZM1.78845 27.4231C1.45977 27.4231 1.1923 27.1556 1.1923 26.827V26.2308H3.62021C3.5922 26.4256 3.5769 26.6245 3.5769 26.827C3.5769 27.0294 3.5922 27.2283 3.62021 27.4231H1.78845ZM7.75002 29.8078C6.10646 29.8078 4.76927 28.4706 4.76927 26.827C4.76927 25.1835 6.10646 23.8463 7.75002 23.8463C9.39358 23.8463 10.7308 25.1835 10.7308 26.827C10.7308 28.4706 9.39358 29.8078 7.75002 29.8078ZM11.8798 26.2308H16.6923V27.4231H11.8798C11.9078 27.2283 11.9231 27.0294 11.9231 26.827C11.9231 26.6245 11.9078 26.4256 11.8798 26.2308ZM26.827 29.8078C25.1834 29.8078 23.8462 28.4706 23.8462 26.827C23.8462 25.1835 25.1834 23.8463 26.827 23.8463C28.4705 23.8463 29.8077 25.1835 29.8077 26.827C29.8077 28.4706 28.4705 29.8078 26.827 29.8078ZM30.9568 27.4231C30.9848 27.2283 31.0001 27.0294 31.0001 26.827C31.0001 24.5259 29.128 22.6539 26.827 22.6539C24.526 22.6539 22.654 24.5259 22.654 26.827C22.654 27.0294 22.6693 27.2283 22.6973 27.4231H20.2694V8.34617H17.8848V4.76927H21.7489L35.7694 24.6316V27.4231H30.9568Z"/>
</mask>
<path d="M36.9616 18.271C36.9616 17.8919 36.844 17.5292 36.6216 17.2221L24.6861 0.739592C24.3507 0.27649 23.8092 0 23.2375 0H8.94232C7.95612 0 7.15387 0.802326 7.15387 1.78845V4.87178C6.46004 5.11795 5.96157 5.78051 5.96157 6.55772C5.96157 7.33492 6.46004 7.99749 7.15387 8.24366V8.94232C7.15387 9.92844 7.95612 10.7308 8.94232 10.7308H16.6923V13.1154H13.5376C11.9467 13.1154 10.5165 13.9993 9.80507 15.4222L8.57386 17.8846H4.69383C3.80668 17.8846 2.97209 18.2755 2.40395 18.9572L0.967209 20.6812C0.343483 21.4297 0 22.3785 0 23.3527V26.827C0 27.8131 0.802254 28.6154 1.78845 28.6154H3.98037C4.65131 30.024 6.0887 31 7.75002 31C9.41134 31 10.8486 30.0239 11.5197 28.6154H17.8846V29.8077H16.6923V31H20.2692V29.8077H19.0769V28.6154H23.0573C23.7282 30.024 25.1656 31 26.827 31C28.4883 31 29.9255 30.0239 30.5966 28.6154H36.9616V18.271ZM35.7693 18.271V22.564L33.3847 19.1859V14.7848L35.6559 17.9214C35.7301 18.0237 35.7693 18.1447 35.7693 18.271ZM26.2308 9.05118V4.90564L28.6154 8.19875V12.4294L26.2308 9.05118ZM29.8077 9.84528L32.1923 13.1382V17.4967L29.8077 14.1185V9.84528ZM23.7204 1.4389L25.0385 3.25919V7.36214L22.6539 3.98398V1.19237H23.2376C23.4281 1.1923 23.6086 1.28441 23.7204 1.4389ZM19.0769 27.4231H17.8846V9.53847H19.0769V27.4231ZM16.6923 17.8846H12.573L13.0044 17.022C13.1061 16.8186 13.3104 16.6923 13.5377 16.6923H16.6924V17.8846H16.6923ZM12.2045 19.0769H16.6923V25.0385H12.2045V19.0769ZM16.6923 3.57697V4.76927H15.5V1.1923H17.8846V3.5769L16.6923 3.57697ZM11.9231 4.76927V1.1923H14.3077V4.7692H11.9231V4.76927ZM19.0769 1.1923H21.4615V3.5769H19.0769V1.1923ZM8.94232 1.1923H10.7308V4.7692H8.34617V1.78845C8.34617 1.45977 8.61363 1.1923 8.94232 1.1923ZM7.75002 5.96157H16.6923V7.15387H7.75002C7.42133 7.15387 7.15387 6.8864 7.15387 6.55772C7.15387 6.22903 7.42133 5.96157 7.75002 5.96157ZM8.94232 9.53847C8.61363 9.53847 8.34617 9.271 8.34617 8.94232V8.34617H16.6923V9.53847H8.94232ZM4.69383 19.0769H9.31085L10.8716 15.9555C11.3798 14.939 12.4014 14.3077 13.5377 14.3077H16.6924V15.5H13.5377C12.856 15.5 12.243 15.8788 11.9381 16.4887L11.0124 18.3401V24.229C10.2471 23.27 9.06952 22.6538 7.75009 22.6538C6.08877 22.6538 4.65153 23.6299 3.98044 25.0384H1.1923V23.8461H3.5769C4.23434 23.8461 4.7692 23.3112 4.7692 22.6538C4.7692 21.4903 3.93143 20.5194 2.82749 20.3111L3.31976 19.7204C3.66071 19.3115 4.1615 19.0769 4.69383 19.0769ZM2.3846 21.4616C3.04204 21.4616 3.5769 21.9965 3.5769 22.6539H1.2764C1.38137 22.2195 1.58299 21.8107 1.86952 21.4616H2.3846ZM1.78845 27.4231C1.45977 27.4231 1.1923 27.1556 1.1923 26.827V26.2308H3.62021C3.5922 26.4256 3.5769 26.6245 3.5769 26.827C3.5769 27.0294 3.5922 27.2283 3.62021 27.4231H1.78845ZM7.75002 29.8078C6.10646 29.8078 4.76927 28.4706 4.76927 26.827C4.76927 25.1835 6.10646 23.8463 7.75002 23.8463C9.39358 23.8463 10.7308 25.1835 10.7308 26.827C10.7308 28.4706 9.39358 29.8078 7.75002 29.8078ZM11.8798 26.2308H16.6923V27.4231H11.8798C11.9078 27.2283 11.9231 27.0294 11.9231 26.827C11.9231 26.6245 11.9078 26.4256 11.8798 26.2308ZM26.827 29.8078C25.1834 29.8078 23.8462 28.4706 23.8462 26.827C23.8462 25.1835 25.1834 23.8463 26.827 23.8463C28.4705 23.8463 29.8077 25.1835 29.8077 26.827C29.8077 28.4706 28.4705 29.8078 26.827 29.8078ZM30.9568 27.4231C30.9848 27.2283 31.0001 27.0294 31.0001 26.827C31.0001 24.5259 29.128 22.6539 26.827 22.6539C24.526 22.6539 22.654 24.5259 22.654 26.827C22.654 27.0294 22.6693 27.2283 22.6973 27.4231H20.2694V8.34617H17.8848V4.76927H21.7489L35.7694 24.6316V27.4231H30.9568Z" fill="#191E3B" stroke="white" stroke-width="0.177143" mask="url(#path-3-inside-1_56_456)"/>
</svg>
