<svg width="27" height="26" viewBox="0 0 27 26" fill="none" xmlns="http://www.w3.org/2000/svg">
<path d="M4.53401 1.11493L4.53401 1.11494L1.28855 4.98512C1.07929 5.20171 0.95 5.49637 0.95 5.82082V23.1621C0.95 23.8259 1.48993 24.3658 2.1537 24.3658H10.6623C11.4215 25.0305 12.4146 25.4346 13.5007 25.4346C14.5869 25.4346 15.5792 25.0305 16.3382 24.3658H24.8463C25.5101 24.3658 26.05 23.8259 26.05 23.1621V5.82082C26.05 5.49613 25.9206 5.20125 25.711 4.98466L22.4674 1.11505C22.3798 1.01046 22.2502 0.95 22.1137 0.95H4.88765C4.75115 0.95 4.6217 1.0104 4.53401 1.11493ZM16.1611 10.233V5.54011H24.8462C25.0009 5.54011 25.1269 5.66604 25.1269 5.82077V23.1621V23.1621C25.1269 23.3168 25.0009 23.4428 24.8462 23.4428H17.1342C17.5646 22.7717 17.8145 21.9742 17.8145 21.1194C17.8145 18.7399 15.8794 16.8041 13.5007 16.8041C11.122 16.8041 9.18537 18.7399 9.18537 21.1194C9.18537 21.9742 9.43543 22.7717 9.86597 23.4428H2.1537C1.99901 23.4428 1.87304 23.3169 1.87304 23.1621V5.82082C1.87304 5.66613 1.99897 5.54017 2.1537 5.54017H10.8389V10.2331C10.8389 10.4129 10.9433 10.5764 11.1066 10.6519C11.2698 10.7274 11.4619 10.7013 11.5991 10.5849L11.5991 10.5849L13.5006 8.97062L15.4008 10.5847C15.4859 10.657 15.5922 10.6945 15.6997 10.6945C15.7653 10.6945 15.8314 10.6805 15.8933 10.6519L15.8933 10.6519C16.0566 10.5764 16.1611 10.4129 16.1611 10.233ZM15.7497 19.5735L15.6636 19.4838V19.5031C15.4883 19.3919 15.2536 19.41 15.0971 19.5601L12.8673 21.6997L11.9096 20.742C11.9096 20.742 11.9096 20.742 11.9096 20.742C11.7294 20.5617 11.4372 20.5618 11.257 20.742C11.0767 20.9222 11.0767 21.2145 11.257 21.3947L12.5343 22.672C12.6243 22.762 12.7425 22.8072 12.8606 22.8072C12.9756 22.8072 13.0908 22.7643 13.1801 22.6786L13.1455 22.6425L13.1801 22.6786L15.7362 20.2261C15.9202 20.0496 15.9261 19.7574 15.7497 19.5735ZM21.8984 1.87304L24.1986 4.61712H16.1611V1.87304H21.8984ZM11.762 5.54017H15.238V9.23547L13.7995 8.01348C13.7995 8.01348 13.7995 8.01348 13.7995 8.01347C13.6273 7.8671 13.3744 7.86712 13.2021 8.01341L11.762 9.23593V5.54017ZM11.762 4.61712V1.87304H15.238V4.61712H11.762ZM2.80178 4.61712L5.10295 1.87304H10.8389V4.61712H2.80178ZM13.5007 24.5116C11.6302 24.5116 10.1084 22.9898 10.1084 21.1194C10.1084 19.2489 11.6302 17.7271 13.5007 17.7271C15.3711 17.7271 16.8915 19.2489 16.8915 21.1194C16.8915 22.9898 15.3703 24.5116 13.5007 24.5116Z" fill="#191E3B" stroke="#191E3B" stroke-width="0.1"/>
</svg>
