<svg width="25" height="24" viewBox="0 0 25 24" fill="none" xmlns="http://www.w3.org/2000/svg">
<path d="M24.7454 4.82429L12.6486 0.0284274C12.5532 -0.0094758 12.4468 -0.0094758 12.3514 0.0284274L0.254637 4.82429C0.100907 4.88523 0 5.03382 0 5.19914V23.4567C0 23.6794 0.180544 23.8599 0.403226 23.8599H2.25817C2.48085 23.8599 2.66139 23.6794 2.66139 23.4567V7.43392H22.3386V23.4567C22.3386 23.6794 22.5192 23.8599 22.7418 23.8599H24.5968C24.8195 23.8599 25 23.6794 25 23.4567V5.19914C25 5.03382 24.8991 4.88523 24.7454 4.82429ZM24.1935 23.0535H23.1451V7.0307C23.1451 6.80801 22.9645 6.62747 22.7418 6.62747H2.25817C2.03548 6.62747 1.85494 6.80801 1.85494 7.0307V23.0535H0.806452V5.47308L12.5 0.837046L24.1935 5.47308V23.0535ZM9.18831 4.01845V5.52268C9.18831 5.74536 9.36885 5.92591 9.59153 5.92591H15.4085C15.6312 5.92591 15.8117 5.74536 15.8117 5.52268V4.01845C15.8117 3.79577 15.6312 3.61522 15.4085 3.61522H9.59153C9.36885 3.61522 9.18831 3.79577 9.18831 4.01845ZM9.99476 4.42167H15.0052V5.11946H9.99476V4.42167ZM20.056 8.25771C20.1438 8.34551 20.1863 8.46885 20.1711 8.59209L20.0018 9.9683C19.9767 10.1726 19.8028 10.3223 19.6021 10.3223C19.5856 10.3223 19.5691 10.3213 19.5524 10.3193C19.3313 10.292 19.1742 10.0908 19.2014 9.86981L19.2276 9.6564L17.4097 11.4743C17.3309 11.5531 17.2278 11.5924 17.1245 11.5924C17.0214 11.5924 16.9181 11.5531 16.8394 11.4743C16.682 11.3168 16.682 11.0616 16.8394 10.9041L18.6574 9.08614L18.444 9.1124C18.223 9.13886 18.0217 8.98241 17.9945 8.76139C17.9673 8.54037 18.1244 8.33916 18.3455 8.31195L19.7217 8.14264C19.8445 8.12737 19.9682 8.16986 20.056 8.25771ZM20.1711 23.0354C20.1863 23.1586 20.1438 23.282 20.056 23.3698C19.9799 23.4459 19.8772 23.4879 19.771 23.4879C19.7546 23.4879 19.7382 23.4869 19.7217 23.4849L18.3455 23.3156C18.1244 23.2884 17.9673 23.0872 17.9945 22.8662C18.0217 22.6451 18.2225 22.4882 18.4439 22.5152L18.6574 22.5414L16.8394 20.7234C16.6819 20.5659 16.6819 20.3107 16.8394 20.1532C16.997 19.9958 17.2522 19.9959 17.4096 20.1532L19.2276 21.9711L19.2013 21.7577C19.1741 21.5367 19.3312 21.3355 19.5523 21.3083C19.7735 21.2819 19.9746 21.4383 20.0018 21.6593L20.1711 23.0354ZM8.16059 20.1531C8.31804 20.3106 8.31804 20.5659 8.16059 20.7234L6.34264 22.5413L6.55605 22.5151C6.77707 22.4887 6.97833 22.6451 7.00549 22.8661C7.03266 23.0871 6.87555 23.2883 6.65449 23.3155L5.27828 23.4848C5.26184 23.4868 5.24541 23.4879 5.22898 23.4879C5.12278 23.4879 5.02001 23.4458 4.94395 23.3698C4.85615 23.282 4.81366 23.1586 4.82883 23.0354L4.99809 21.6592C5.0253 21.4381 5.22611 21.2813 5.44753 21.3082C5.6686 21.3354 5.82571 21.5366 5.79854 21.7576L5.77228 21.9711L7.59027 20.1531C7.74778 19.9957 8.00302 19.9957 8.16059 20.1531ZM6.55605 9.11235L6.34259 9.08609L8.16059 10.9041C8.31804 11.0616 8.31804 11.3168 8.16059 11.4743C8.08185 11.5531 7.97863 11.5924 7.87545 11.5924C7.77223 11.5924 7.66905 11.5531 7.59032 11.4743L5.77238 9.6564L5.79864 9.86981C5.82581 10.0908 5.6687 10.292 5.44763 10.3193C5.43095 10.3213 5.41431 10.3223 5.39793 10.3223C5.19723 10.3223 5.02334 10.1726 4.99819 9.9683L4.82888 8.59209C4.81371 8.4689 4.8562 8.34551 4.94395 8.25776C5.03175 8.16991 5.15539 8.12742 5.27833 8.14264L6.65454 8.31189C6.8756 8.33911 7.03271 8.54032 7.00554 8.76134C6.97828 8.98231 6.77661 9.13906 6.55605 9.11235ZM17.3961 18.4077V13.2198C17.3961 13.0758 17.3193 12.9426 17.1945 12.8706L12.7016 10.2767C12.5769 10.2046 12.4231 10.2046 12.2984 10.2767L7.80554 12.8706C7.68075 12.9426 7.60393 13.0757 7.60393 13.2198V18.4077C7.60393 18.5518 7.68075 18.6849 7.80554 18.7569L12.2984 21.3508C12.3607 21.3868 12.4304 21.4048 12.5 21.4048C12.5696 21.4048 12.6393 21.3868 12.7016 21.3508L17.1945 18.7569C17.3192 18.6849 17.3961 18.5518 17.3961 18.4077ZM12.5 15.3481L11.7114 14.8929L15.3978 12.7645L16.1863 13.2198L12.5 15.3481ZM14.5914 12.299L10.9051 14.4273L10.4086 14.1407L14.095 12.0123L14.5914 12.299ZM10.0054 14.8391L10.5019 15.1257V16.2373L10.0054 15.9507V14.8391ZM12.5 11.0915L13.2886 11.5467L9.60217 13.6751L8.81366 13.2198L12.5 11.0915ZM8.41038 13.9182L9.19894 14.3734V16.1835C9.19894 16.3276 9.27576 16.4607 9.40055 16.5327L10.7035 17.2849C10.7658 17.321 10.8355 17.339 10.9051 17.339C10.9747 17.339 11.0444 17.321 11.1067 17.2849C11.2315 17.2129 11.3083 17.0798 11.3083 16.9357V15.5913L12.0968 16.0465V20.3032L8.41038 18.1748V13.9182ZM12.9032 20.3032V16.0465L16.5896 13.9181V18.1748L12.9032 20.3032Z" fill="#191E3B"/>
</svg>
