<svg width="24" height="24" viewBox="0 0 24 24" fill="none" xmlns="http://www.w3.org/2000/svg">
<path d="M22.2354 18.2649C23.3922 16.3803 24.0031 14.2115 24 12.0002C24.0031 9.78888 23.3922 7.61969 22.2354 5.73506L22.2288 5.72477C21.1556 3.97557 19.6517 2.53082 17.8609 1.52855C16.0701 0.526288 14.0522 8.38595e-06 12 1.00218e-10C9.94785 -8.38575e-06 7.92994 0.526255 6.13914 1.5285C4.34833 2.53075 2.84447 3.9755 1.77124 5.72469L1.76458 5.73511C0.61065 7.62103 8.56514e-06 9.78902 0 12C-8.56496e-06 14.2109 0.610616 16.3789 1.76453 18.2648L1.77131 18.2754C2.84454 20.0246 4.3484 21.4693 6.13919 22.4715C7.92999 23.4737 9.94788 24 12 24C14.0522 24 16.0701 23.4737 17.8609 22.4715C19.6517 21.4692 21.1555 20.0245 22.2287 18.2753L22.2354 18.2649ZM13.5339 21.9433C13.3052 22.164 13.042 22.3458 12.7547 22.4815C12.5189 22.5935 12.2611 22.6517 12 22.6517C11.7389 22.6517 11.4811 22.5935 11.2453 22.4815C10.6985 22.2022 10.2305 21.7904 9.884 21.2836C9.1763 20.2609 8.65185 19.123 8.33407 17.9207C9.55481 17.8456 10.7768 17.8073 12 17.8059C13.2227 17.8059 14.4447 17.8442 15.6661 17.9207C15.4902 18.5389 15.2705 19.1438 15.0087 19.7307C14.6639 20.5562 14.1631 21.3075 13.5339 21.9433ZM1.37178 12.6742H6.21196C6.24347 14.0247 6.38986 15.3702 6.64955 16.696C5.32643 16.8124 4.0067 16.9723 2.69034 17.1757C1.91951 15.7927 1.46891 14.2544 1.37178 12.6742ZM2.69033 6.82429C4.00617 7.0282 5.32637 7.18815 6.65094 7.30414C6.39074 8.62981 6.24402 9.97525 6.21239 11.3258H1.37178C1.4689 9.74556 1.9195 8.20724 2.69033 6.82429ZM10.4661 2.05662C10.6948 1.83598 10.958 1.6542 11.2453 1.51848C11.4811 1.40643 11.7389 1.3483 12 1.3483C12.2611 1.3483 12.5189 1.40643 12.7547 1.51848C13.3015 1.79775 13.7695 2.20961 14.116 2.71641C14.8237 3.73904 15.3481 4.87695 15.6659 6.07928C14.4452 6.1544 13.2232 6.19267 12 6.19408C10.7773 6.19407 9.55525 6.1558 8.33386 6.07927C8.50975 5.46108 8.72946 4.85621 8.99131 4.26925C9.3361 3.44375 9.83684 2.6925 10.4661 2.05662ZM22.6282 11.3258H17.788C17.7565 9.97525 17.6101 8.62979 17.3505 7.30402C18.6736 7.18759 19.9933 7.02768 21.3097 6.82429C22.0805 8.20723 22.5311 9.74556 22.6282 11.3258ZM8.00564 16.5911C7.74196 15.3012 7.59303 13.9904 7.56062 12.6742H16.4395C16.4074 13.9904 16.2587 15.3012 15.9953 16.5912C14.665 16.5039 13.3332 16.4593 12 16.4576C10.6677 16.4576 9.33628 16.5021 8.00564 16.5911ZM15.9944 7.40884C16.258 8.69881 16.4069 10.0096 16.4394 11.3258H7.56047C7.59259 10.0096 7.74124 8.69879 8.00468 7.40878C9.33499 7.49606 10.6668 7.5406 12 7.54238C13.3323 7.54238 14.6637 7.49786 15.9944 7.40884ZM17.7876 12.6742H22.6282C22.5311 14.2544 22.0805 15.7927 21.3097 17.1757C19.9938 16.9718 18.6736 16.8118 17.3491 16.6958C17.6093 15.3702 17.756 14.0247 17.7876 12.6742ZM20.5012 5.58331C19.3508 5.7493 18.1969 5.88071 17.0395 5.97756C16.8315 5.20311 16.5632 4.44612 16.2371 3.71352C15.9394 3.03935 15.5648 2.40184 15.1208 1.81366C17.2667 2.47179 19.1498 3.79113 20.5012 5.58331ZM4.46809 4.46809C5.69908 3.23593 7.21352 2.32454 8.87867 1.81382C8.8534 1.84654 8.82741 1.87781 8.80251 1.91121C7.94663 3.14329 7.3232 4.52147 6.96297 5.97776C5.80555 5.87973 4.65081 5.74825 3.49876 5.58331C3.79588 5.18975 4.11976 4.81713 4.46809 4.46809ZM3.49876 18.4167C4.64922 18.2507 5.80313 18.1192 6.96049 18.0224C7.1685 18.7969 7.43678 19.5539 7.76287 20.2865C8.06058 20.9606 8.43519 21.5981 8.87922 22.1863C6.73328 21.5282 4.85016 20.2088 3.49876 18.4167ZM19.5319 19.5319C18.3009 20.7641 16.7865 21.6754 15.1213 22.1862C15.1466 22.1534 15.1726 22.1222 15.1975 22.0888C16.0534 20.8567 16.6768 19.4785 17.037 18.0222C18.1945 18.1202 19.3492 18.2517 20.5012 18.4167C20.2041 18.8102 19.8802 19.1828 19.5319 19.5319Z" fill="#191E3B"/>
</svg>
