<svg width="58" height="58" viewBox="0 0 58 58" fill="none" xmlns="http://www.w3.org/2000/svg">
<path d="M3.02264 28.9983L7.64987 24.3712L7.65004 24.3711C7.9877 24.0312 7.98791 23.4818 7.65004 23.1431C7.31204 22.8029 6.76192 22.8029 6.42388 23.1431C6.42386 23.1431 6.42383 23.1431 6.42381 23.1431L1.18399 28.3841C1.18395 28.3841 1.18391 28.3842 1.18387 28.3842C0.838477 28.7273 0.839008 29.269 1.1838 29.6124L3.02264 28.9983ZM3.02264 28.9983L7.64987 33.6248L7.65003 33.625C7.98776 33.9648 7.98788 34.514 7.64994 34.8529C7.31435 35.1936 6.7521 35.1906 6.42361 34.8526C6.42347 34.8524 6.42333 34.8523 6.42319 34.8522L1.18392 29.6125L3.02264 28.9983ZM51.5813 23.1429L51.5809 23.1424C51.2362 22.8033 50.6864 22.8025 50.348 23.143C50.0102 23.4817 50.0104 24.0311 50.348 24.3709L50.3482 24.3711L54.9754 28.9982L50.3482 33.6246L50.3481 33.6247C49.8002 34.1743 50.198 35.1073 50.9611 35.1073C51.1883 35.1073 51.4085 35.0227 51.5809 34.8533L51.5813 34.8528L56.8215 29.6123L56.8216 29.6121C57.1594 29.2726 57.1595 28.723 56.8216 28.3842L56.8215 28.3842L51.5813 23.1429ZM40.1115 32.6123V40.3595H32.3653V32.6123H40.1115ZM32.0966 30.8755C31.2871 30.8755 30.6289 31.5335 30.6289 32.3424V40.6288C30.6289 41.4376 31.287 42.0968 32.0966 42.0968H40.3804C41.1899 42.0968 41.848 41.4376 41.848 40.6288V32.3424C41.848 31.5336 41.19 30.8755 40.3804 30.8755H32.0966ZM40.1115 17.637V25.3846H32.3653V17.637H40.1115ZM30.6289 17.3672V25.6534C30.6289 26.4622 31.287 27.1214 32.0966 27.1214H40.3804C41.1899 27.1214 41.848 26.4622 41.848 25.6534V17.3672C41.848 16.5582 41.19 15.9003 40.3804 15.9003H32.0966C31.2871 15.9003 30.6289 16.5582 30.6289 17.3672ZM25.6327 17.637V40.3595H17.8866V17.637H25.6327ZM16.1501 40.6286C16.1501 41.4375 16.8082 42.0967 17.6178 42.0967H25.9016C26.7107 42.0967 27.3764 41.438 27.3764 40.6286V17.3672C27.3764 16.5577 26.7106 15.9003 25.9016 15.9003H17.6178C16.8082 15.9003 16.1501 16.5582 16.1501 17.3672V40.6286ZM47.5906 10.4079V1.79325C47.5906 1.31281 47.1977 0.925 46.7188 0.925C46.239 0.925 45.8542 1.31368 45.8542 1.79325V10.4079H15.7729C15.2941 10.4079 14.9012 10.7972 14.9012 11.2764C14.9012 11.7572 15.2942 12.145 15.7729 12.145H45.8542V42.2258C45.8542 42.7053 46.2391 43.0943 46.7188 43.0943C47.1976 43.0943 47.5906 42.7062 47.5906 42.2258V12.145H56.2086C56.6883 12.145 57.0732 11.7563 57.0732 11.2764C57.0732 10.798 56.6883 10.4079 56.2086 10.4079H47.5906ZM42.2324 47.5876C42.7045 47.5876 43.097 47.1981 43.097 46.7191C43.097 46.239 42.7044 45.8508 42.2324 45.8508H12.1511V15.7699C12.1511 15.2892 11.7581 14.9014 11.2794 14.9014C10.7996 14.9014 10.4148 15.29 10.4148 15.7699V45.8508H1.79675C1.318 45.8508 0.925 46.2386 0.925 46.7191C0.925 47.1985 1.31778 47.5876 1.79675 47.5876H10.4148V56.2034C10.4148 56.682 10.7995 57.0719 11.2794 57.0719C11.7582 57.0719 12.1511 56.6829 12.1511 56.2034V47.5876H42.2324Z" fill="#191E3B" stroke="#191E3B" stroke-width="0.15"/>
</svg>
