<svg id="Layer_3" height="512" viewBox="0 0 91 91" width="512" xmlns="http://www.w3.org/2000/svg" data-name="Layer 3"><path d="m36.45 76.69-3.47-2.14-3.03 2.14v-9.17h6.5z" fill="#b1d5f1"/><path d="m60.71 76.69-3.48-2.14-3.02 2.14v-9.17h6.5z" fill="#b1d5f1"/><path d="m48.58 57.94-3.47-2.13-3.03 2.13v-9.16h6.5z" fill="#b1d5f1"/><path d="m45.44 4.52a13.45 13.45 0 0 0 -13.44 13.48c0 7.44 13.45 26.1 13.45 26.1s13.45-18.69 13.45-26.1a13.45 13.45 0 0 0 -13.46-13.48zm0 19a5.65 5.65 0 1 1 5.65-5.64 5.65 5.65 0 0 1 -5.65 5.6z" fill="#b1d5f1"/><g fill="#5a99d1"><path d="m42.61 87.5h-21.31a1.24 1.24 0 0 1 -1.24-1.24v-18.74a1.25 1.25 0 0 1 1.24-1.24h24a1.25 1.25 0 0 1 1.24 1.24v16a4 4 0 0 1 -3.93 3.98zm-20.07-2.5h20.07a1.5 1.5 0 0 0 1.48-1.49v-14.75h-21.55z"/><path d="m29.93 77.92a1.22 1.22 0 0 1 -1.23-1.23v-9.17a1.24 1.24 0 0 1 1.23-1.24h6.51a1.24 1.24 0 0 1 1.23 1.24v9.17a1.25 1.25 0 0 1 -.67 1.08 1.22 1.22 0 0 1 -1.25 0l-2.75-1.77-2.35 1.7a1.22 1.22 0 0 1 -.72.22zm3-4.61a1.2 1.2 0 0 1 .65.19l1.59 1v-5.74h-4v5.54l1.07-.76a1.28 1.28 0 0 1 .76-.23z"/><path d="m66.86 87.5h-21.3a1.23 1.23 0 0 1 -1.24-1.24v-18.74a1.24 1.24 0 0 1 1.24-1.24h24a1.24 1.24 0 0 1 1.23 1.24v16a4 4 0 0 1 -3.93 3.98zm-20.07-2.5h20.07a1.49 1.49 0 0 0 1.49-1.49v-14.75h-21.56z"/><path d="m54.19 77.92a1.28 1.28 0 0 1 -.57-.13 1.25 1.25 0 0 1 -.67-1.1v-9.17a1.25 1.25 0 0 1 1.24-1.24h6.5a1.25 1.25 0 0 1 1.24 1.24v9.17a1.24 1.24 0 0 1 -.64 1.08 1.22 1.22 0 0 1 -1.25 0l-2.78-1.77-2.35 1.7a1.27 1.27 0 0 1 -.72.22zm3-4.61a1.17 1.17 0 0 1 .65.19l1.59 1v-5.74h-4v5.54l1.07-.76a1.23 1.23 0 0 1 .71-.23z"/><path d="m54.73 68.76h-21.3a1.25 1.25 0 0 1 -1.24-1.24v-18.74a1.24 1.24 0 0 1 1.24-1.23h24a1.24 1.24 0 0 1 1.24 1.23v16a4 4 0 0 1 -3.94 3.98zm-20.06-2.48h20.06a1.49 1.49 0 0 0 1.49-1.48v-14.8h-21.55z"/><path d="m42.06 59.18a1.3 1.3 0 0 1 -.57-.14 1.22 1.22 0 0 1 -.66-1.1v-9.16a1.23 1.23 0 0 1 1.23-1.23h6.5a1.23 1.23 0 0 1 1.24 1.23v9.16a1.24 1.24 0 0 1 -.63 1.06 1.26 1.26 0 0 1 -1.26 0l-2.78-1.71-2.35 1.71a1.28 1.28 0 0 1 -.72.18zm3-4.61a1.28 1.28 0 0 1 .65.18l1.58 1v-5.75h-4v5.53l1.07-.75a1.28 1.28 0 0 1 .73-.21z"/><path d="m87 41.72a1.33 1.33 0 0 1 -.5-.11l-30.5-13.47a1.24 1.24 0 0 1 -.63-1.63 1.23 1.23 0 0 1 1.63-.63l30.5 13.47a1.24 1.24 0 0 1 .59 1.65 1.26 1.26 0 0 1 -1.09.72z"/><path d="m3.93 41.72a1.24 1.24 0 0 1 -.5-2.38l30.44-13.34a1.23 1.23 0 1 1 1 2.26l-30.44 13.35a1.25 1.25 0 0 1 -.5.11z"/><path d="m79.11 87.49a1.23 1.23 0 0 1 -1.24-1.24v-48a1.24 1.24 0 1 1 2.47 0v48a1.23 1.23 0 0 1 -1.23 1.24z"/><path d="m11.78 87.49a1.24 1.24 0 0 1 -1.24-1.24v-48a1.24 1.24 0 0 1 2.48 0v48a1.24 1.24 0 0 1 -1.24 1.24z"/><path d="m45.44 45.31a1.24 1.24 0 0 1 -1-.51c-.56-.8-13.69-19.08-13.69-26.8a14.7 14.7 0 0 1 29.39 0c0 7.72-13.14 26-13.69 26.8a1.25 1.25 0 0 1 -1.01.51zm0-39.56a12.24 12.24 0 0 0 -12.22 12.25c0 5.3 8.06 18 12.22 24 4.17-6 12.22-18.66 12.22-24a12.24 12.24 0 0 0 -12.22-12.25z"/><path d="m45.44 24.72a6.89 6.89 0 1 1 6.89-6.88 6.89 6.89 0 0 1 -6.89 6.88zm0-11.29a4.41 4.41 0 1 0 4.41 4.41 4.41 4.41 0 0 0 -4.41-4.41z"/></g></svg>